<?xml version="1.0" encoding="UTF-8"?>
<!--Generator: Apple Native CoreSVG 175.5-->
<!DOCTYPE svg
PUBLIC "-//W3C//DTD SVG 1.1//EN"
       "http://www.w3.org/Graphics/SVG/1.1/DTD/svg11.dtd">
<svg version="1.1" xmlns="http://www.w3.org/2000/svg" xmlns:xlink="http://www.w3.org/1999/xlink" width="3300" height="2200">
 <!--glyph: "uni101740.medium", point size: 100.0, font version: "18.0d12e2", template writer version: "101"-->
 <g id="Notes">
  <rect height="2200" id="artboard" style="fill:white;opacity:1" width="3300" x="0" y="0"/>
  <line style="fill:none;stroke:black;opacity:1;stroke-width:0.5;" x1="263" x2="3036" y1="292" y2="292"/>
  <text style="stroke:none;fill:black;font-family:sans-serif;font-size:13;font-weight:bold;" transform="matrix(1 0 0 1 263 322)">Weight/Scale Variations</text>
  <text style="stroke:none;fill:black;font-family:sans-serif;font-size:13;text-anchor:middle;" transform="matrix(1 0 0 1 559.711 322)">Ultralight</text>
  <text style="stroke:none;fill:black;font-family:sans-serif;font-size:13;text-anchor:middle;" transform="matrix(1 0 0 1 856.422 322)">Thin</text>
  <text style="stroke:none;fill:black;font-family:sans-serif;font-size:13;text-anchor:middle;" transform="matrix(1 0 0 1 1153.13 322)">Light</text>
  <text style="stroke:none;fill:black;font-family:sans-serif;font-size:13;text-anchor:middle;" transform="matrix(1 0 0 1 1449.84 322)">Regular</text>
  <text style="stroke:none;fill:black;font-family:sans-serif;font-size:13;text-anchor:middle;" transform="matrix(1 0 0 1 1746.56 322)">Medium</text>
  <text style="stroke:none;fill:black;font-family:sans-serif;font-size:13;text-anchor:middle;" transform="matrix(1 0 0 1 2043.27 322)">Semibold</text>
  <text style="stroke:none;fill:black;font-family:sans-serif;font-size:13;text-anchor:middle;" transform="matrix(1 0 0 1 2339.98 322)">Bold</text>
  <text style="stroke:none;fill:black;font-family:sans-serif;font-size:13;text-anchor:middle;" transform="matrix(1 0 0 1 2636.69 322)">Heavy</text>
  <text style="stroke:none;fill:black;font-family:sans-serif;font-size:13;text-anchor:middle;" transform="matrix(1 0 0 1 2933.4 322)">Black</text>
  <line style="fill:none;stroke:black;opacity:1;stroke-width:0.5;" x1="263" x2="3036" y1="1903" y2="1903"/>
  <g transform="matrix(1 0 0 1 263 1933)">
   <path d="M9.24805 0.830078C13.5547 0.830078 17.1387-2.74414 17.1387-7.05078C17.1387-11.3574 13.5449-14.9316 9.23828-14.9316C4.94141-14.9316 1.36719-11.3574 1.36719-7.05078C1.36719-2.74414 4.95117 0.830078 9.24805 0.830078ZM9.24805-0.654297C5.70312-0.654297 2.87109-3.49609 2.87109-7.05078C2.87109-10.6055 5.69336-13.4473 9.23828-13.4473C12.793-13.4473 15.6445-10.6055 15.6445-7.05078C15.6445-3.49609 12.8027-0.654297 9.24805-0.654297ZM5.6543-7.05078C5.6543-6.62109 5.95703-6.32812 6.40625-6.32812L8.50586-6.32812L8.50586-4.20898C8.50586-3.76953 8.79883-3.4668 9.22852-3.4668C9.67773-3.4668 9.9707-3.76953 9.9707-4.20898L9.9707-6.32812L12.0898-6.32812C12.5293-6.32812 12.832-6.62109 12.832-7.05078C12.832-7.49023 12.5293-7.79297 12.0898-7.79297L9.9707-7.79297L9.9707-9.90234C9.9707-10.3516 9.67773-10.6543 9.22852-10.6543C8.79883-10.6543 8.50586-10.3516 8.50586-9.90234L8.50586-7.79297L6.40625-7.79297C5.95703-7.79297 5.6543-7.49023 5.6543-7.05078Z"/>
  </g>
  <g transform="matrix(1 0 0 1 281.867 1933)">
   <path d="M11.709 2.91016C17.1582 2.91016 21.6699-1.61133 21.6699-7.05078C21.6699-12.5 17.1484-17.0117 11.6992-17.0117C6.25977-17.0117 1.74805-12.5 1.74805-7.05078C1.74805-1.61133 6.26953 2.91016 11.709 2.91016ZM11.709 1.25C7.09961 1.25 3.41797-2.44141 3.41797-7.05078C3.41797-11.6602 7.08984-15.3516 11.6992-15.3516C16.3086-15.3516 20.0098-11.6602 20.0098-7.05078C20.0098-2.44141 16.3184 1.25 11.709 1.25ZM7.17773-7.05078C7.17773-6.57227 7.50977-6.25 8.00781-6.25L10.8789-6.25L10.8789-3.36914C10.8789-2.88086 11.2109-2.53906 11.6895-2.53906C12.1777-2.53906 12.5195-2.87109 12.5195-3.36914L12.5195-6.25L15.4004-6.25C15.8887-6.25 16.2305-6.57227 16.2305-7.05078C16.2305-7.53906 15.8887-7.88086 15.4004-7.88086L12.5195-7.88086L12.5195-10.752C12.5195-11.25 12.1777-11.5918 11.6895-11.5918C11.2109-11.5918 10.8789-11.25 10.8789-10.752L10.8789-7.88086L8.00781-7.88086C7.50977-7.88086 7.17773-7.53906 7.17773-7.05078Z"/>
  </g>
  <g transform="matrix(1 0 0 1 305.646 1933)">
   <path d="M14.9707 5.66406C21.9336 5.66406 27.6953-0.0976562 27.6953-7.05078C27.6953-14.0137 21.9238-19.7754 14.9609-19.7754C8.00781-19.7754 2.25586-14.0137 2.25586-7.05078C2.25586-0.0976562 8.01758 5.66406 14.9707 5.66406ZM14.9707 3.84766C8.93555 3.84766 4.08203-1.01562 4.08203-7.05078C4.08203-13.0957 8.92578-17.9492 14.9609-17.9492C21.0059-17.9492 25.8691-13.0957 25.8691-7.05078C25.8691-1.01562 21.0156 3.84766 14.9707 3.84766ZM9.19922-7.05078C9.19922-6.5332 9.57031-6.17188 10.1172-6.17188L14.0625-6.17188L14.0625-2.2168C14.0625-1.67969 14.4336-1.29883 14.9512-1.29883C15.4883-1.29883 15.8594-1.66992 15.8594-2.2168L15.8594-6.17188L19.8145-6.17188C20.3516-6.17188 20.7324-6.5332 20.7324-7.05078C20.7324-7.59766 20.3613-7.96875 19.8145-7.96875L15.8594-7.96875L15.8594-11.9141C15.8594-12.4609 15.4883-12.8418 14.9512-12.8418C14.4336-12.8418 14.0625-12.4609 14.0625-11.9141L14.0625-7.96875L10.1172-7.96875C9.57031-7.96875 9.19922-7.59766 9.19922-7.05078Z"/>
  </g>
  <text style="stroke:none;fill:black;font-family:sans-serif;font-size:13;font-weight:bold;" transform="matrix(1 0 0 1 263 1953)">Design Variations</text>
  <text style="stroke:none;fill:black;font-family:sans-serif;font-size:13;" transform="matrix(1 0 0 1 263 1971)">Symbols are supported in up to nine weights and three scales.</text>
  <text style="stroke:none;fill:black;font-family:sans-serif;font-size:13;" transform="matrix(1 0 0 1 263 1989)">For optimal layout with text and other symbols, vertically align</text>
  <text style="stroke:none;fill:black;font-family:sans-serif;font-size:13;" transform="matrix(1 0 0 1 263 2007)">symbols with the adjacent text.</text>
  <line style="fill:none;stroke:#00AEEF;stroke-width:0.5;opacity:1.0;" x1="776" x2="776" y1="1919" y2="1933"/>
  <g transform="matrix(1 0 0 1 776 1933)">
   <path d="M3.31055 0.15625C3.82812 0.15625 4.08203-0.0390625 4.26758-0.585938L5.52734-4.0332L11.2891-4.0332L12.5488-0.585938C12.7344-0.0390625 12.9883 0.15625 13.4961 0.15625C14.0137 0.15625 14.3457-0.15625 14.3457-0.644531C14.3457-0.810547 14.3164-0.966797 14.2383-1.17188L9.6582-13.3691C9.43359-13.9648 9.0332-14.2676 8.4082-14.2676C7.80273-14.2676 7.39258-13.9746 7.17773-13.3789L2.59766-1.16211C2.51953-0.957031 2.49023-0.800781 2.49023-0.634766C2.49023-0.146484 2.80273 0.15625 3.31055 0.15625ZM6.00586-5.51758L8.37891-12.0898L8.42773-12.0898L10.8008-5.51758Z"/>
  </g>
  <line style="fill:none;stroke:#00AEEF;stroke-width:0.5;opacity:1.0;" x1="793.197" x2="793.197" y1="1919" y2="1933"/>
  <text style="stroke:none;fill:black;font-family:sans-serif;font-size:13;font-weight:bold;" transform="matrix(1 0 0 1 776 1953)">Margins</text>
  <text style="stroke:none;fill:black;font-family:sans-serif;font-size:13;" transform="matrix(1 0 0 1 776 1971)">Leading and trailing margins on the left and right side of each symbol</text>
  <text style="stroke:none;fill:black;font-family:sans-serif;font-size:13;" transform="matrix(1 0 0 1 776 1989)">can be adjusted by modifying the x-location of the margin guidelines.</text>
  <text style="stroke:none;fill:black;font-family:sans-serif;font-size:13;" transform="matrix(1 0 0 1 776 2007)">Modifications are automatically applied proportionally to all</text>
  <text style="stroke:none;fill:black;font-family:sans-serif;font-size:13;" transform="matrix(1 0 0 1 776 2025)">scales and weights.</text>
  <g transform="matrix(1 0 0 1 1289 1933)">
   <path d="M2.8418 1.86523L4.54102 3.57422C5.40039 4.44336 6.38672 4.38477 7.31445 3.35938L18.0078-8.42773L17.041-9.4043L6.42578 2.27539C6.07422 2.67578 5.74219 2.77344 5.27344 2.30469L4.10156 1.14258C3.63281 0.683594 3.74023 0.341797 4.14062-0.0195312L15.6152-10.8203L14.6387-11.7871L3.04688-0.898438C2.06055 0.0195312 1.98242 0.996094 2.8418 1.86523ZM9.25781-16.3281C8.83789-15.918 8.80859-15.3418 9.04297-14.9512C9.27734-14.5898 9.73633-14.3555 10.3809-14.5215C11.8457-14.8633 13.3691-14.9219 14.7949-13.9844L14.209-12.5293C13.8672-11.6992 14.043-11.1133 14.5801-10.5664L16.875-8.25195C17.3633-7.76367 17.7734-7.74414 18.3398-7.8418L19.4043-8.03711L20.0684-7.36328L20.0293-6.80664C19.9902-6.30859 20.1172-5.92773 20.6055-5.44922L21.3672-4.70703C21.8457-4.22852 22.4609-4.19922 22.9297-4.66797L25.8398-7.58789C26.3086-8.05664 26.2891-8.65234 25.8105-9.13086L25.0391-9.89258C24.5605-10.3711 24.1895-10.5273 23.7109-10.4883L23.1348-10.4395L22.4902-11.0742L22.7344-12.1973C22.8613-12.7637 22.7051-13.2031 22.1191-13.7891L19.9219-15.9766C16.582-19.2969 12.1484-19.2188 9.25781-16.3281ZM10.752-15.957C13.1836-17.7344 16.4746-17.4316 18.7012-15.2051L21.1328-12.793C21.3672-12.5586 21.4062-12.373 21.3379-12.0312L21.0156-10.5469L22.5195-9.0625L23.5059-9.12109C23.7598-9.13086 23.8379-9.11133 24.0332-8.91602L24.6094-8.33984L22.168-5.89844L21.5918-6.47461C21.3965-6.66992 21.3672-6.74805 21.377-7.01172L21.4453-7.98828L19.9512-9.47266L18.4277-9.21875C18.1055-9.15039 17.959-9.17969 17.7148-9.41406L15.7129-11.416C15.459-11.6504 15.4297-11.8164 15.5859-12.1875L16.4648-14.2773C14.9023-15.7324 12.8711-16.3574 10.8398-15.7617C10.6836-15.7227 10.625-15.8496 10.752-15.957Z"/>
  </g>
  <text style="stroke:none;fill:black;font-family:sans-serif;font-size:13;font-weight:bold;" transform="matrix(1 0 0 1 1289 1953)">Exporting</text>
  <text style="stroke:none;fill:black;font-family:sans-serif;font-size:13;" transform="matrix(1 0 0 1 1289 1971)">Symbols should be outlined when exporting to ensure the</text>
  <text style="stroke:none;fill:black;font-family:sans-serif;font-size:13;" transform="matrix(1 0 0 1 1289 1989)">design is preserved when submitting to Xcode.</text>
  <text id="template-version" style="stroke:none;fill:black;font-family:sans-serif;font-size:13;text-anchor:end;" transform="matrix(1 0 0 1 3036 1933)">Template v.2.0</text>
  <text style="stroke:none;fill:black;font-family:sans-serif;font-size:13;text-anchor:end;" transform="matrix(1 0 0 1 3036 1951)">Requires Xcode 12 or greater</text>
  <text id="descriptive-name" style="stroke:none;fill:black;font-family:sans-serif;font-size:13;text-anchor:end;" transform="matrix(1 0 0 1 3036 1969)">Generated from eraser</text>
  <text style="stroke:none;fill:black;font-family:sans-serif;font-size:13;text-anchor:end;" transform="matrix(1 0 0 1 3036 1987)">Typeset at 100 points</text>
  <text style="stroke:none;fill:black;font-family:sans-serif;font-size:13;" transform="matrix(1 0 0 1 263 726)">Small</text>
  <text style="stroke:none;fill:black;font-family:sans-serif;font-size:13;" transform="matrix(1 0 0 1 263 1156)">Medium</text>
  <text style="stroke:none;fill:black;font-family:sans-serif;font-size:13;" transform="matrix(1 0 0 1 263 1586)">Large</text>
 </g>
 <g id="Guides">
  <g id="H-reference" style="fill:#27AAE1;stroke:none;" transform="matrix(1 0 0 1 339 696)">
   <path d="M0.993654 0L3.63775 0L29.3281-67.1323L30.0303-67.1323L30.0303-70.459L28.1226-70.459ZM11.6885-24.4799L46.9815-24.4799L46.2315-26.7285L12.4385-26.7285ZM55.1196 0L57.7637 0L30.6382-70.459L29.4326-70.459L29.4326-67.1323Z"/>
  </g>
  <line id="Baseline-S" style="fill:none;stroke:#27AAE1;opacity:1;stroke-width:0.5;" x1="263" x2="3036" y1="696" y2="696"/>
  <line id="Capline-S" style="fill:none;stroke:#27AAE1;opacity:1;stroke-width:0.5;" x1="263" x2="3036" y1="625.541" y2="625.541"/>
  <g id="H-reference" style="fill:#27AAE1;stroke:none;" transform="matrix(1 0 0 1 339 1126)">
   <path d="M0.993654 0L3.63775 0L29.3281-67.1323L30.0303-67.1323L30.0303-70.459L28.1226-70.459ZM11.6885-24.4799L46.9815-24.4799L46.2315-26.7285L12.4385-26.7285ZM55.1196 0L57.7637 0L30.6382-70.459L29.4326-70.459L29.4326-67.1323Z"/>
  </g>
  <line id="Baseline-M" style="fill:none;stroke:#27AAE1;opacity:1;stroke-width:0.5;" x1="263" x2="3036" y1="1126" y2="1126"/>
  <line id="Capline-M" style="fill:none;stroke:#27AAE1;opacity:1;stroke-width:0.5;" x1="263" x2="3036" y1="1055.54" y2="1055.54"/>
  <g id="H-reference" style="fill:#27AAE1;stroke:none;" transform="matrix(1 0 0 1 339 1556)">
   <path d="M0.993654 0L3.63775 0L29.3281-67.1323L30.0303-67.1323L30.0303-70.459L28.1226-70.459ZM11.6885-24.4799L46.9815-24.4799L46.2315-26.7285L12.4385-26.7285ZM55.1196 0L57.7637 0L30.6382-70.459L29.4326-70.459L29.4326-67.1323Z"/>
  </g>
  <line id="Baseline-L" style="fill:none;stroke:#27AAE1;opacity:1;stroke-width:0.5;" x1="263" x2="3036" y1="1556" y2="1556"/>
  <line id="Capline-L" style="fill:none;stroke:#27AAE1;opacity:1;stroke-width:0.5;" x1="263" x2="3036" y1="1485.54" y2="1485.54"/>
  <line id="left-margin" style="fill:none;stroke:#00AEEF;stroke-width:0.5;opacity:1.0;" x1="1389.95" x2="1389.95" y1="1030.79" y2="1150.12"/>
  <line id="right-margin" style="fill:none;stroke:#00AEEF;stroke-width:0.5;opacity:1.0;" x1="1509.74" x2="1509.74" y1="1030.79" y2="1150.12"/>
 </g>
 <g id="Symbols">
  <g id="Black-L" transform="matrix(1 0 0 1 2847.41 1556)">
   <path d="M23.107-2.06587L52.3682 27.1149C63.7482 38.4741 77.3605 38.7558 88.2224 27.894L151.549-35.455C159.576-43.4591 159.439-53.7936 151.312-61.9186L112.199-101.069C104.074-109.195 93.703-109.295 85.7352-101.269L22.4071-37.9797C11.5452-27.1179 11.8269-13.4471 23.107-2.06587ZM38.1108-15.3784C34.9782-18.5318 34.7382-21.9944 37.4579-24.7933L96.9358-84.2129C98.0324-85.3679 99.586-85.3679 100.72-84.2337L134.535-50.4191C135.611-49.3421 135.59-47.8106 134.514-46.6543L74.9944 12.764C72.2955 15.5629 68.7745 15.2644 65.6795 12.1694ZM39.3293-38.5692L88.7947 10.9545L100.587-0.860779L51.1267-50.2625Z"/>
  </g>
  <g id="Heavy-L" transform="matrix(1 0 0 1 2552.85 1556)">
   <path d="M22.7324-2.7488L50.8988 25.3372C61.7685 36.1767 74.6369 36.4728 84.9918 26.1178L147.698-36.6241C155.126-44.0167 155.013-53.7593 147.474-61.2871L109.401-99.3738C101.873-106.907 92.122-107.012 84.7382-99.5838L22.0265-36.8921C11.6716-26.5372 11.9676-13.6242 22.7324-2.7488ZM35.7741-14.5077C32.2373-18.0746 32.0017-22.0667 35.1801-25.3199L94.7932-84.8884C96.0383-86.1781 97.8076-86.1781 99.0671-84.9186L133.063-50.9227C134.278-49.7022 134.248-47.9687 133.033-46.6735L73.3593 12.8894C70.211 16.1427 66.1744 15.8624 62.652 12.3401ZM37.2669-38.1192L86.2056 10.8641L96.5936 0.434664L47.7065-48.4078Z"/>
  </g>
  <g id="Bold-L" transform="matrix(1 0 0 1 2258.73 1556)">
   <path d="M22.2116-3.67603L49.2416 23.2736C59.4067 33.4007 71.368 33.7047 81.0407 24.0319L143.06-38.0389C149.758-44.6858 149.675-53.6835 142.859-60.4735L105.988-97.3356C99.1979-104.139 90.2222-104.244 83.5533-97.546L21.5205-35.5175C11.8477-25.8448 12.1517-13.8544 22.2116-3.67603ZM32.855-13.4989C28.8634-17.5284 28.6354-22.1663 32.3377-25.9358L92.1422-85.711C93.6014-87.1995 95.6843-87.1995 97.1348-85.749L131.301-51.5824C132.723-50.1479 132.685-48.1162 131.263-46.6145L71.383 13.1475C67.7186 16.917 63.0516 16.6598 59.0513 12.6594ZM34.8126-37.5434L83.0683 10.7415L91.7197 2.02566L43.562-46.1029Z"/>
  </g>
  <g id="Semibold-L" transform="matrix(1 0 0 1 1963.8 1556)">
   <path d="M21.8526-4.31526L48.0992 21.8509C57.7785 31.4869 69.1144 31.7964 78.3168 22.5939L139.863-39.0144C146.058-45.1472 145.996-53.6312 139.677-59.9127L103.635-95.9305C97.3534-102.23 88.9126-102.336 82.7365-96.1411L21.1716-34.5699C11.9691-25.3675 12.2786-14.013 21.8526-4.31526ZM30.8425-12.8035C26.5375-17.1519 26.3147-22.2349 30.3782-26.3604L90.3146-86.2781C91.9215-87.9037 94.2206-87.9037 95.8027-86.3215L130.087-52.0372C131.651-50.4552 131.607-48.2179 130.044-46.5739L70.0206 13.3254C66.0004 17.4508 60.8988 17.2095 56.569 12.8796ZM33.1206-37.1465L80.9055 10.6569L88.3597 3.12249L40.7048-44.5138Z"/>
  </g>
  <g id="Medium-L" transform="matrix(1 0 0 1 1668.45 1556)">
   <path d="M21.5804-4.79995L47.233 20.7722C56.544 30.0357 67.4056 30.3494 76.2515 21.5036L137.439-39.754C143.252-45.4969 143.206-53.5916 137.265-59.4874L101.851-94.8651C95.9548-100.783 87.9195-100.889 82.1171-95.0759L20.907-33.8514C12.0612-25.0055 12.3749-14.1334 21.5804-4.79995ZM29.3166-12.2762C24.7738-16.8664 24.555-22.287 28.8924-26.6823L88.9288-86.7081C90.6477-88.4376 93.1107-88.4376 94.7927-86.7556L129.166-52.382C130.838-50.6881 130.79-48.295 129.119-46.5432L68.9875 13.4603C64.6976 17.8556 59.2665 17.6263 54.6868 13.0466ZM31.8377-36.8456L79.2656 10.5928L85.812 3.95415L38.5383-43.309Z"/>
  </g>
  <g id="Regular-L" transform="matrix(1 0 0 1 1373.5 1556)">
   <path d="M21.2254-5.43215L46.1032 19.3652C54.9337 28.143 65.1768 28.4621 73.5575 20.0814L134.277-40.7186C139.592-45.9532 139.567-53.5399 134.119-58.9328L99.5234-93.4755C94.1305-98.896 86.6242-99.0015 81.3092-93.6865L20.562-32.9142C12.1813-24.5334 12.5004-14.2903 21.2254-5.43215ZM27.3263-11.5884C22.4734-16.494 22.2598-22.3549 26.9544-27.1022L87.1212-87.269C88.9862-89.134 91.663-89.134 93.4752-87.3218L127.965-52.8318C129.777-50.992 129.725-48.3956 127.912-46.503L67.64 13.6362C62.9982 18.3835 57.1374 18.1699 52.2318 13.2643ZM30.1643-36.4531L77.1266 10.5092L82.4889 5.03892L35.7125-41.7374Z"/>
  </g>
  <g id="Light-L" transform="matrix(1 0 0 1 1078.11 1556)">
   <path d="M20.5001-6.59635L46.0077 18.8308C53.884 26.6734 63.5927 26.9353 71.1528 19.3752L131.93-41.4821C136.806-46.2776 136.819-53.2727 131.829-58.1694L97.5003-92.464C92.6037-97.4073 85.689-97.4747 80.813-92.5987L19.9894-31.7881C12.4294-24.2281 12.6912-14.5193 20.5001-6.59635ZM25.1506-11.3403C20.2786-16.2459 20.0841-22.4884 24.855-27.293L85.3081-87.7462C87.5166-89.9547 90.7088-89.9547 92.8836-87.7798L127.144-53.5189C129.319-51.2974 129.286-48.1857 127.111-45.9304L66.5903 14.476C61.8531 19.2805 55.6105 19.086 50.7049 14.1804ZM29.1146-35.9377L75.4089 10.3566L79.5879 6.05044L33.4414-40.0961Z"/>
  </g>
  <g id="Thin-L" transform="matrix(1 0 0 1 783.141 1556)">
   <path d="M19.5409-8.1361L45.8815 18.1241C52.4957 24.7298 61.4977 24.9159 67.9723 18.4413L128.825-42.4917C133.12-46.7068 133.184-52.9194 128.8-57.1597L94.8247-91.1261C90.5844-95.4385 84.4522-95.4553 80.1567-91.1599L19.2322-30.2989C12.7575-23.8242 12.9437-14.8222 19.5409-8.1361ZM22.273-11.0121C17.3758-15.9178 17.2065-22.6651 22.0784-27.5454L82.9102-88.3772C85.573-91.0401 89.4467-91.0401 92.1011-88.3856L126.059-54.4276C128.714-51.7012 128.705-47.908 126.051-45.1732L65.202 15.5866C60.3386 20.4669 53.5912 20.2976 48.6856 15.392ZM27.7263-35.2562L73.1372 10.1546L75.7511 7.38826L30.4376-37.9253Z"/>
  </g>
  <g id="Ultralight-L" transform="matrix(1 0 0 1 487.321 1556)">
   <path d="M19.0496-8.92476L45.8169 17.7621C51.7846 23.7343 60.4246 23.8816 66.3433 17.9629L127.235-43.0089C131.233-46.9265 131.322-52.7383 127.248-56.6425L93.4543-90.4409C89.5501-94.43 83.8187-94.421 79.8206-90.423L18.8443-29.5361C12.9256-23.6174 13.073-14.9774 19.0496-8.92476ZM20.7991-10.8441C15.889-15.7497 15.7327-22.7556 20.6563-27.6747L81.6819-88.7004C84.5775-91.596 88.8002-91.596 91.7003-88.6959L125.503-54.8931C128.403-51.9081 128.408-47.7658 125.508-44.7853L64.4909 16.1555C59.5629 21.0746 52.5569 20.9182 47.6513 16.0126ZM27.0153-34.9071L71.9736 10.0512L73.786 8.07348L28.8991-36.8134Z"/>
  </g>
  <g id="Black-M" transform="matrix(1 0 0 1 2865.11 1126)">
   <path d="M18.1256-9.10705L41.8217 14.5268C50.9476 23.6472 62.0606 23.8453 70.8002 15.1057L120.404-34.5028C127.076-41.1702 126.956-49.6051 120.216-56.346L89.0555-87.5579C82.3146-94.2985 73.8277-94.3666 67.2123-87.6941L17.6093-38.1424C8.86963-29.4027 9.06781-18.2326 18.1256-9.10705ZM31.2396-20.5646C29.1574-22.6523 28.9702-24.9317 30.6933-26.7174L76.696-72.663C77.4646-73.4887 78.5526-73.4887 79.3728-72.6685L105.383-46.6578C106.147-45.895 106.141-44.8122 105.378-43.9868L59.3643 1.95906C57.6467 3.7448 55.3102 3.50051 53.2796 1.46991ZM32.1003-38.1339L70.7854 0.608287L80.9677-9.5789L42.2417-48.2478Z"/>
  </g>
  <g id="Heavy-M" transform="matrix(1 0 0 1 2570.38 1126)">
   <path d="M17.8263-9.66726L40.3941 12.8382C49.1092 21.5369 59.5442 21.7543 67.864 13.4345L116.855-35.5753C122.984-41.6852 122.882-49.5963 116.675-55.7991L86.5072-85.9941C80.3044-92.1992 72.3685-92.2756 66.2834-86.147L17.29-37.183C8.97024-28.8633 9.1877-18.3846 17.8263-9.66726ZM29.1559-19.7364C26.6804-22.2283 26.4958-24.99 28.6603-27.2146L74.7687-73.2794C75.6507-74.205 76.9021-74.205 77.8113-73.2958L104.02-47.0867C104.886-46.2189 104.87-44.9862 104.004-44.0583L57.8628 2.00419C55.7146 4.22879 52.9093 4.00053 50.461 1.55221ZM30.181-37.7415L68.4128 0.533933L77.3316-8.40583L39.1077-46.5861Z"/>
  </g>
  <g id="Bold-M" transform="matrix(1 0 0 1 2275.88 1126)">
   <path d="M17.4915-10.2939L38.7971 10.9493C47.0526 19.1762 56.7292 19.4152 64.5794 11.5651L112.886-36.775C118.406-42.2614 118.325-49.5864 112.714-55.1872L83.6566-84.2447C78.0558-89.8507 70.736-89.9365 65.2444-84.4163L16.9329-36.1099C9.08279-28.2598 9.32182-18.5546 17.4915-10.2939ZM26.8251-18.8099C23.9096-21.754 23.7278-25.0553 26.3862-27.7708L72.6128-73.9689C73.6217-75.0063 75.0558-75.0063 76.0645-73.9975L102.496-47.5665C103.476-46.5812 103.447-45.1808 102.467-44.1383L56.183 2.05467C53.5533 4.7702 50.2235 4.55988 47.3079 1.64428ZM28.034-37.3025L65.7587 0.450758L73.2642-7.09359L35.6019-44.7273Z"/>
  </g>
  <g id="Semibold-M" transform="matrix(1 0 0 1 1980.7 1126)">
   <path d="M17.2607-10.726L37.6961 9.64712C45.6348 17.5488 54.7886 17.8027 62.3149 10.2764L110.149-37.6021C115.25-42.6587 115.184-49.5795 109.984-54.7654L81.6914-83.0387C76.5055-88.2317 69.6107-88.324 64.5281-83.2232L16.6867-35.3701C9.16038-27.8437 9.41427-18.6718 17.2607-10.726ZM25.2182-18.1712C21.9994-21.427 21.8196-25.1003 24.8184-28.1542L71.1266-74.4443C72.2229-75.5587 73.7829-75.5587 74.8603-74.4813L101.444-47.8973C102.504-46.8309 102.467-45.315 101.407-44.1935L55.025 2.08947C52.0633 5.14345 48.3719 4.94549 45.1342 1.70776ZM26.5539-36.9999L63.929 0.393417L70.4601-6.18893L33.1851-43.4458Z"/>
  </g>
  <g id="Medium-M" transform="matrix(1 0 0 1 1685.15 1126)">
   <path d="M17.0857-11.0535L36.8613 8.65974C44.5598 16.3148 53.3172 16.58 60.598 9.29916L108.074-38.2292C112.857-42.9598 112.802-49.5744 107.913-54.4456L80.2013-82.1243C75.3301-87.0041 68.7573-87.1012 63.9849-82.3185L16.5-34.8091C9.21921-27.5283 9.48438-18.7606 17.0857-11.0535ZM23.9999-17.6868C20.551-21.1791 20.3727-25.1344 23.6296-28.445L69.9996-74.8047C71.1622-75.9776 72.8178-75.9776 73.9473-74.8481L100.647-48.1481C101.766-47.0203 101.723-45.4168 100.604-44.2353L54.147 2.11586C50.9335 5.42646 46.968 5.23787 43.486 1.75588ZM25.4316-36.7704L62.5417 0.349939L68.334-5.50299L31.3525-42.4742Z"/>
  </g>
  <g id="Regular-M" transform="matrix(1 0 0 1 1389.95 1126)">
   <path d="M16.8575-11.4808L35.7724 7.37186C43.1576 14.7052 51.3979 14.9851 58.3585 8.02455L105.368-39.0471C109.736-43.3527 109.695-49.5676 105.213-54.0284L78.2578-80.9315C73.7969-85.4029 67.6443-85.5064 63.2765-81.1385L16.2565-34.0774C9.29595-27.1168 9.57582-18.8765 16.8575-11.4808ZM22.4107-17.0551C18.6618-20.8557 18.4855-25.1788 22.079-28.8242L68.5297-75.2748C69.7788-76.5239 71.559-76.5239 72.7563-75.3266L99.6076-48.4752C100.805-47.2674 100.753-45.5495 99.5559-44.2898L53.0017 2.15028C49.4599 5.79561 45.1368 5.61924 41.3362 1.81866ZM23.9677-36.4711L60.732 0.293228L65.5607-4.60828L28.9622-41.2068Z"/>
  </g>
  <g id="Light-M" transform="matrix(1 0 0 1 1094.42 1126)">
   <path d="M16.2072-12.5246L35.6869 6.89275C42.2165 13.3877 49.9777 13.6162 56.2025 7.39145L103.263-39.7316C107.238-43.6436 107.231-49.3281 103.159-53.344L76.444-80.0246C72.4281-84.0682 66.8059-84.1375 62.8316-80.1632L15.7432-33.0678C9.51839-26.8431 9.74693-19.0818 16.2072-12.5246ZM20.46-16.8327C16.6941-20.6333 16.5348-25.2986 20.1968-28.9953L66.9041-75.7026C68.4612-77.2597 70.7034-77.2597 72.2259-75.7372L98.8719-49.0912C100.394-47.5411 100.36-45.3612 98.8372-43.7765L52.0606 2.90316C48.4333 6.59982 43.7679 6.44057 39.9673 2.63998ZM23.0266-36.0091L59.1921 0.156341L62.9598-3.7014L26.926-39.7352Z"/>
  </g>
  <g id="Thin-M" transform="matrix(1 0 0 1 799.27 1126)">
   <path d="M15.3473-13.9051L35.5737 6.25909C40.9718 11.6451 48.0993 11.8058 53.351 6.55412L100.48-40.6368C103.933-44.0283 103.972-49.0112 100.444-52.4388L74.0452-78.8252C70.6176-82.3031 65.697-82.3271 62.2432-78.8733L15.0643-31.7326C9.81259-26.481 9.97324-19.3534 15.3473-13.9051ZM17.8801-16.5385C14.0915-20.3391 13.9549-25.457 17.7075-29.2216L64.7542-76.2683C66.7187-78.2328 69.5719-78.2328 71.5243-76.2804L97.8987-49.9059C99.8512-47.9032 99.8392-45.1123 97.8867-43.0976L50.8159 3.89891C47.0754 7.66346 41.9575 7.52684 38.1569 3.72625ZM21.782-35.3981L57.1553-0.0247039L59.52-2.50197L24.233-37.789Z"/>
  </g>
  <g id="Ultralight-M" transform="matrix(1 0 0 1 503.359 1126)">
   <path d="M14.9068-14.6121L35.5158 5.93454C40.3343 10.7526 47.1373 10.8785 51.8905 6.12524L99.0539-41.1005C102.241-44.2254 102.303-48.849 99.0526-51.9751L72.8165-78.2109C69.6903-81.3989 65.129-81.3998 61.9418-78.2126L14.7165-31.0488C9.96328-26.2955 10.0892-19.4925 14.9068-14.6121ZM16.5587-16.3878C12.7586-20.1884 12.6335-25.5382 16.4324-29.3375L63.6531-76.5581C65.8262-78.7312 68.9923-78.7312 71.165-76.5586L97.4003-50.3232C99.573-48.0887 99.5726-44.9848 97.3999-42.7498L50.1784 4.40892C46.3799 8.20825 41.0302 8.08322 37.2296 4.28263ZM21.1444-35.0851L56.1121-0.117434L57.7581-1.88764L22.8536-36.7921Z"/>
  </g>
  <g id="Black-S" transform="matrix(1 0 0 1 2879.35 696)">
   <path d="M14.2578-14.6484L33.2031 4.24805C40.4297 11.4746 49.3164 11.6211 56.25 4.6875L95.3125-34.375C100.684-39.7461 100.586-46.4844 95.166-51.9043L70.459-76.6602C65.0391-82.0801 58.252-82.1289 52.9297-76.7578L13.8672-37.7441C6.93359-30.8105 7.08008-21.875 14.2578-14.6484ZM25-23.9746C23.4863-25.4883 23.3398-27.1484 24.5605-28.418L60.5957-64.4043C61.1816-65.0391 62.0117-65.0391 62.6465-64.4043L82.959-44.0918C83.5449-43.5059 83.5449-42.6758 82.959-42.041L46.9238-6.05469C45.7031-4.78516 43.9941-4.98047 42.5293-6.44531ZM25.6836-37.5977L56.1035-7.12891L64.4043-15.4297L33.9355-45.8496Z"/>
  </g>
  <g id="Heavy-S" transform="matrix(1 0 0 1 2584.18 696)">
   <path d="M14.0849-14.9942L31.9931 2.86511C38.9776 9.83814 47.3457 10.0077 54.0143 3.33914L92.5466-35.2048C97.5028-40.1495 97.4167-46.5074 92.4001-51.524L68.5113-75.4386C63.4948-80.4551 57.111-80.5155 52.1921-75.5593L13.6597-37.0527C6.99122-30.3841 7.16075-21.9787 14.0849-14.9942ZM23.4672-23.2947C21.6194-25.1541 21.4729-27.183 23.0624-28.8213L59.1551-64.8768C59.7987-65.5577 60.7095-65.5577 61.3788-64.8883L81.8872-44.3799C82.5192-43.7479 82.5077-42.8486 81.8757-42.1678L45.7599-6.11231C44.1819-4.474 42.1157-4.65778 40.2936-6.47989ZM24.1624-37.3211L54.2711-7.175L61.6269-14.5423L31.5154-44.6165Z"/>
  </g>
  <g id="Bold-S" transform="matrix(1 0 0 1 2289.2 696)">
   <path d="M13.8916-15.3809L30.6396 1.31836C37.3535 8.00781 45.1416 8.20312 51.5137 1.83105L89.4531-36.1328C93.9453-40.6006 93.8721-46.5332 89.3066-51.0986L66.333-74.0723C61.7676-78.6377 55.835-78.7109 51.3672-74.2188L13.4277-36.2793C7.05566-29.9072 7.25098-22.0947 13.8916-15.3809ZM21.7529-22.5342C19.5312-24.7803 19.3848-27.2217 21.3867-29.2725L57.5439-65.4053C58.252-66.1377 59.2529-66.1377 59.9609-65.4297L80.6885-44.7021C81.3721-44.0186 81.3477-43.042 80.6641-42.3096L44.458-6.17676C42.4805-4.12598 40.0146-4.29688 37.793-6.51855ZM22.4609-37.0117L52.2217-7.22656L58.5205-13.5498L28.8086-43.2373Z"/>
  </g>
  <g id="Semibold-S" transform="matrix(1 0 0 1 1993.68 696)">
   <path d="M13.7583-15.6475L29.7065 0.251953C36.2338 6.7459 43.622 6.95898 49.7896 0.791309L87.3203-36.7727C91.4926-40.9116 91.4282-46.551 87.1738-50.8054L64.8312-73.1303C60.5768-77.3847 54.9552-77.4668 50.7984-73.2945L13.2678-35.7461C7.1001-29.5784 7.31318-22.1747 13.7583-15.6475ZM20.571-22.0099C18.0916-24.5226 17.9451-27.2483 20.2314-29.5835L56.4331-65.7696C57.1855-66.5376 58.2487-66.5376 58.9834-65.8029L79.862-44.9243C80.5812-44.2052 80.5479-43.1753 79.8287-42.4073L43.5604-6.22119C41.3074-3.88604 38.5661-4.04805 36.0689-6.54521ZM21.2879-36.7984L50.8087-7.26211L56.3788-12.8655L26.9424-42.2864Z"/>
  </g>
  <g id="Medium-S" transform="matrix(1 0 0 1 1697.87 696)">
   <path d="M13.6572-15.8496L28.999-0.556641C35.3848 5.78906 42.4697 6.01562 48.4824 0.00292969L85.7031-37.2578C89.6328-41.1475 89.5752-46.5645 85.5566-50.583L63.6924-72.416C59.6738-76.4346 54.2881-76.5234 50.3672-72.5938L13.1465-35.3418C7.13379-29.3291 7.36035-22.2354 13.6572-15.8496ZM19.6748-21.6123C17-24.3271 16.8535-27.2686 19.3555-29.8193L55.5908-66.0459C56.377-66.8408 57.4873-66.8408 58.2422-66.0859L79.2354-45.0928C79.9814-44.3467 79.9414-43.2764 79.1953-42.4814L42.8799-6.25488C40.418-3.7041 37.4678-3.85938 34.7617-6.56543ZM20.3984-36.6367L49.7373-7.28906L54.7549-12.3467L25.5273-41.5654Z"/>
  </g>
  <g id="Regular-S" transform="matrix(1 0 0 1 1402.33 696)">
   <path d="M13.5254-16.1133L28.0762-1.61133C34.2773 4.54102 40.9668 4.78516 46.7773-1.02539L83.5938-37.8906C87.207-41.4551 87.1582-46.582 83.4473-50.293L62.207-71.4844C58.4961-75.1953 53.418-75.293 49.8047-71.6797L12.9883-34.8145C7.17773-29.0039 7.42188-22.3145 13.5254-16.1133ZM18.5059-21.0938C15.5762-24.0723 15.4297-27.2949 18.2129-30.127L54.4922-66.4062C55.3223-67.2363 56.4941-67.2363 57.2754-66.4551L78.418-45.3125C79.1992-44.5312 79.1504-43.4082 78.3691-42.5781L41.9922-6.29883C39.2578-3.4668 36.0352-3.61328 33.0566-6.5918ZM19.2383-36.4258L48.3398-7.32422L52.6367-11.6699L23.6816-40.625Z"/>
  </g>
  <g id="Light-S" transform="matrix(1 0 0 1 1106.67 696)">
   <path d="M12.9502-17.0366L28.0005-2.03515C33.4448 3.3755 39.7105 3.57423 44.8701-1.58544L81.7319-38.4961C84.9971-41.7124 84.9785-46.3701 81.6309-49.6875L60.6026-70.6821C57.2852-74.0147 52.6763-74.082 49.4111-70.8169L12.5342-33.9214C7.37451-28.7617 7.57324-22.4961 12.9502-17.0366ZM16.7803-20.897C13.8355-23.8755 13.7041-27.4009 16.5479-30.2783L53.0542-66.7847C54.1567-67.8872 55.7373-67.8872 56.8062-66.8184L77.7671-45.8574C78.8359-44.7734 78.8022-43.2417 77.7334-42.124L41.1597-5.63282C38.3496-2.75538 34.8242-2.88672 31.8457-5.86524ZM18.4058-36.0171L46.9775-7.44531L50.336-10.8677L21.8804-39.3233Z"/>
  </g>
  <g id="Thin-S" transform="matrix(1 0 0 1 811.338 696)">
   <path d="M12.1895-18.2578L27.9004-2.5957C32.3438 1.83401 38.0489 1.97268 42.3477-2.32616L79.2696-39.2969C82.0743-42.0527 82.0957-46.0898 79.2285-48.8867L58.4805-69.6211C55.6836-72.4531 51.6953-72.4805 48.8906-69.6758L11.9336-32.7403C7.63476-28.4414 7.77343-22.7363 12.1895-18.2578ZM14.4981-20.6367C11.5332-23.6152 11.4219-27.541 14.3457-30.4785L51.1524-67.2851C52.6153-68.748 54.7363-68.748 56.1856-67.2988L76.9063-46.5781C78.3555-45.0937 78.3418-43.0215 76.8926-41.5234L40.0586-4.75197C37.1485-1.81447 33.2227-1.92579 30.2442-4.90431ZM17.3047-35.4766L45.1758-7.60547L47.293-9.80666L19.4981-37.6016Z"/>
  </g>
  <g id="Ultralight-S" transform="matrix(1 0 0 1 515.335 696)">
   <path d="M11.7998-18.8833L27.8491-2.8828C31.7798 1.04446 37.1978 1.15237 41.0557-2.70555L78.0083-39.707C80.5772-42.227 80.6192-45.9463 77.9981-48.4766L57.3936-69.0777C54.8633-71.6533 51.1929-71.6602 48.624-69.0913L11.626-32.1353C7.76806-28.2773 7.87597-22.8594 11.7998-18.8833ZM13.3291-20.5034C10.354-23.4819 10.253-27.6128 13.2178-30.5811L50.1783-67.5415C51.8257-69.1889 54.2237-69.1889 55.8677-67.5449L76.4653-46.9473C78.1094-45.2578 78.106-42.9087 76.4619-41.2158L39.4946-4.3008C36.5332-1.33254 32.4024-1.43361 29.4239-4.41213ZM16.7407-35.1997L44.253-7.6875L45.7344-9.2632L18.2779-36.7198Z"/>
  </g>
 </g>
</svg>
