<?xml version="1.0" encoding="UTF-8"?>
<!--Generator: Apple Native CoreSVG 175.5-->
<!DOCTYPE svg
PUBLIC "-//W3C//DTD SVG 1.1//EN"
       "http://www.w3.org/Graphics/SVG/1.1/DTD/svg11.dtd">
<svg version="1.1" xmlns="http://www.w3.org/2000/svg" xmlns:xlink="http://www.w3.org/1999/xlink" width="3300" height="2200">
 <!--glyph: "uni101243.medium", point size: 100.0, font version: "18.0d12e2", template writer version: "101"-->
 <g id="Notes">
  <rect height="2200" id="artboard" style="fill:white;opacity:1" width="3300" x="0" y="0"/>
  <line style="fill:none;stroke:black;opacity:1;stroke-width:0.5;" x1="263" x2="3036" y1="292" y2="292"/>
  <text style="stroke:none;fill:black;font-family:sans-serif;font-size:13;font-weight:bold;" transform="matrix(1 0 0 1 263 322)">Weight/Scale Variations</text>
  <text style="stroke:none;fill:black;font-family:sans-serif;font-size:13;text-anchor:middle;" transform="matrix(1 0 0 1 559.711 322)">Ultralight</text>
  <text style="stroke:none;fill:black;font-family:sans-serif;font-size:13;text-anchor:middle;" transform="matrix(1 0 0 1 856.422 322)">Thin</text>
  <text style="stroke:none;fill:black;font-family:sans-serif;font-size:13;text-anchor:middle;" transform="matrix(1 0 0 1 1153.13 322)">Light</text>
  <text style="stroke:none;fill:black;font-family:sans-serif;font-size:13;text-anchor:middle;" transform="matrix(1 0 0 1 1449.84 322)">Regular</text>
  <text style="stroke:none;fill:black;font-family:sans-serif;font-size:13;text-anchor:middle;" transform="matrix(1 0 0 1 1746.56 322)">Medium</text>
  <text style="stroke:none;fill:black;font-family:sans-serif;font-size:13;text-anchor:middle;" transform="matrix(1 0 0 1 2043.27 322)">Semibold</text>
  <text style="stroke:none;fill:black;font-family:sans-serif;font-size:13;text-anchor:middle;" transform="matrix(1 0 0 1 2339.98 322)">Bold</text>
  <text style="stroke:none;fill:black;font-family:sans-serif;font-size:13;text-anchor:middle;" transform="matrix(1 0 0 1 2636.69 322)">Heavy</text>
  <text style="stroke:none;fill:black;font-family:sans-serif;font-size:13;text-anchor:middle;" transform="matrix(1 0 0 1 2933.4 322)">Black</text>
  <line style="fill:none;stroke:black;opacity:1;stroke-width:0.5;" x1="263" x2="3036" y1="1903" y2="1903"/>
  <g transform="matrix(1 0 0 1 263 1933)">
   <path d="M9.24805 0.830078C13.5547 0.830078 17.1387-2.74414 17.1387-7.05078C17.1387-11.3574 13.5449-14.9316 9.23828-14.9316C4.94141-14.9316 1.36719-11.3574 1.36719-7.05078C1.36719-2.74414 4.95117 0.830078 9.24805 0.830078ZM9.24805-0.654297C5.70312-0.654297 2.87109-3.49609 2.87109-7.05078C2.87109-10.6055 5.69336-13.4473 9.23828-13.4473C12.793-13.4473 15.6445-10.6055 15.6445-7.05078C15.6445-3.49609 12.8027-0.654297 9.24805-0.654297ZM5.6543-7.05078C5.6543-6.62109 5.95703-6.32812 6.40625-6.32812L8.50586-6.32812L8.50586-4.20898C8.50586-3.76953 8.79883-3.4668 9.22852-3.4668C9.67773-3.4668 9.9707-3.76953 9.9707-4.20898L9.9707-6.32812L12.0898-6.32812C12.5293-6.32812 12.832-6.62109 12.832-7.05078C12.832-7.49023 12.5293-7.79297 12.0898-7.79297L9.9707-7.79297L9.9707-9.90234C9.9707-10.3516 9.67773-10.6543 9.22852-10.6543C8.79883-10.6543 8.50586-10.3516 8.50586-9.90234L8.50586-7.79297L6.40625-7.79297C5.95703-7.79297 5.6543-7.49023 5.6543-7.05078Z"/>
  </g>
  <g transform="matrix(1 0 0 1 281.867 1933)">
   <path d="M11.709 2.91016C17.1582 2.91016 21.6699-1.61133 21.6699-7.05078C21.6699-12.5 17.1484-17.0117 11.6992-17.0117C6.25977-17.0117 1.74805-12.5 1.74805-7.05078C1.74805-1.61133 6.26953 2.91016 11.709 2.91016ZM11.709 1.25C7.09961 1.25 3.41797-2.44141 3.41797-7.05078C3.41797-11.6602 7.08984-15.3516 11.6992-15.3516C16.3086-15.3516 20.0098-11.6602 20.0098-7.05078C20.0098-2.44141 16.3184 1.25 11.709 1.25ZM7.17773-7.05078C7.17773-6.57227 7.50977-6.25 8.00781-6.25L10.8789-6.25L10.8789-3.36914C10.8789-2.88086 11.2109-2.53906 11.6895-2.53906C12.1777-2.53906 12.5195-2.87109 12.5195-3.36914L12.5195-6.25L15.4004-6.25C15.8887-6.25 16.2305-6.57227 16.2305-7.05078C16.2305-7.53906 15.8887-7.88086 15.4004-7.88086L12.5195-7.88086L12.5195-10.752C12.5195-11.25 12.1777-11.5918 11.6895-11.5918C11.2109-11.5918 10.8789-11.25 10.8789-10.752L10.8789-7.88086L8.00781-7.88086C7.50977-7.88086 7.17773-7.53906 7.17773-7.05078Z"/>
  </g>
  <g transform="matrix(1 0 0 1 305.646 1933)">
   <path d="M14.9707 5.66406C21.9336 5.66406 27.6953-0.0976562 27.6953-7.05078C27.6953-14.0137 21.9238-19.7754 14.9609-19.7754C8.00781-19.7754 2.25586-14.0137 2.25586-7.05078C2.25586-0.0976562 8.01758 5.66406 14.9707 5.66406ZM14.9707 3.84766C8.93555 3.84766 4.08203-1.01562 4.08203-7.05078C4.08203-13.0957 8.92578-17.9492 14.9609-17.9492C21.0059-17.9492 25.8691-13.0957 25.8691-7.05078C25.8691-1.01562 21.0156 3.84766 14.9707 3.84766ZM9.19922-7.05078C9.19922-6.5332 9.57031-6.17188 10.1172-6.17188L14.0625-6.17188L14.0625-2.2168C14.0625-1.67969 14.4336-1.29883 14.9512-1.29883C15.4883-1.29883 15.8594-1.66992 15.8594-2.2168L15.8594-6.17188L19.8145-6.17188C20.3516-6.17188 20.7324-6.5332 20.7324-7.05078C20.7324-7.59766 20.3613-7.96875 19.8145-7.96875L15.8594-7.96875L15.8594-11.9141C15.8594-12.4609 15.4883-12.8418 14.9512-12.8418C14.4336-12.8418 14.0625-12.4609 14.0625-11.9141L14.0625-7.96875L10.1172-7.96875C9.57031-7.96875 9.19922-7.59766 9.19922-7.05078Z"/>
  </g>
  <text style="stroke:none;fill:black;font-family:sans-serif;font-size:13;font-weight:bold;" transform="matrix(1 0 0 1 263 1953)">Design Variations</text>
  <text style="stroke:none;fill:black;font-family:sans-serif;font-size:13;" transform="matrix(1 0 0 1 263 1971)">Symbols are supported in up to nine weights and three scales.</text>
  <text style="stroke:none;fill:black;font-family:sans-serif;font-size:13;" transform="matrix(1 0 0 1 263 1989)">For optimal layout with text and other symbols, vertically align</text>
  <text style="stroke:none;fill:black;font-family:sans-serif;font-size:13;" transform="matrix(1 0 0 1 263 2007)">symbols with the adjacent text.</text>
  <line style="fill:none;stroke:#00AEEF;stroke-width:0.5;opacity:1.0;" x1="776" x2="776" y1="1919" y2="1933"/>
  <g transform="matrix(1 0 0 1 776 1933)">
   <path d="M3.31055 0.15625C3.82812 0.15625 4.08203-0.0390625 4.26758-0.585938L5.52734-4.0332L11.2891-4.0332L12.5488-0.585938C12.7344-0.0390625 12.9883 0.15625 13.4961 0.15625C14.0137 0.15625 14.3457-0.15625 14.3457-0.644531C14.3457-0.810547 14.3164-0.966797 14.2383-1.17188L9.6582-13.3691C9.43359-13.9648 9.0332-14.2676 8.4082-14.2676C7.80273-14.2676 7.39258-13.9746 7.17773-13.3789L2.59766-1.16211C2.51953-0.957031 2.49023-0.800781 2.49023-0.634766C2.49023-0.146484 2.80273 0.15625 3.31055 0.15625ZM6.00586-5.51758L8.37891-12.0898L8.42773-12.0898L10.8008-5.51758Z"/>
  </g>
  <line style="fill:none;stroke:#00AEEF;stroke-width:0.5;opacity:1.0;" x1="793.197" x2="793.197" y1="1919" y2="1933"/>
  <text style="stroke:none;fill:black;font-family:sans-serif;font-size:13;font-weight:bold;" transform="matrix(1 0 0 1 776 1953)">Margins</text>
  <text style="stroke:none;fill:black;font-family:sans-serif;font-size:13;" transform="matrix(1 0 0 1 776 1971)">Leading and trailing margins on the left and right side of each symbol</text>
  <text style="stroke:none;fill:black;font-family:sans-serif;font-size:13;" transform="matrix(1 0 0 1 776 1989)">can be adjusted by modifying the x-location of the margin guidelines.</text>
  <text style="stroke:none;fill:black;font-family:sans-serif;font-size:13;" transform="matrix(1 0 0 1 776 2007)">Modifications are automatically applied proportionally to all</text>
  <text style="stroke:none;fill:black;font-family:sans-serif;font-size:13;" transform="matrix(1 0 0 1 776 2025)">scales and weights.</text>
  <g transform="matrix(1 0 0 1 1289 1933)">
   <path d="M2.8418 1.86523L4.54102 3.57422C5.40039 4.44336 6.38672 4.38477 7.31445 3.35938L18.0078-8.42773L17.041-9.4043L6.42578 2.27539C6.07422 2.67578 5.74219 2.77344 5.27344 2.30469L4.10156 1.14258C3.63281 0.683594 3.74023 0.341797 4.14062-0.0195312L15.6152-10.8203L14.6387-11.7871L3.04688-0.898438C2.06055 0.0195312 1.98242 0.996094 2.8418 1.86523ZM9.25781-16.3281C8.83789-15.918 8.80859-15.3418 9.04297-14.9512C9.27734-14.5898 9.73633-14.3555 10.3809-14.5215C11.8457-14.8633 13.3691-14.9219 14.7949-13.9844L14.209-12.5293C13.8672-11.6992 14.043-11.1133 14.5801-10.5664L16.875-8.25195C17.3633-7.76367 17.7734-7.74414 18.3398-7.8418L19.4043-8.03711L20.0684-7.36328L20.0293-6.80664C19.9902-6.30859 20.1172-5.92773 20.6055-5.44922L21.3672-4.70703C21.8457-4.22852 22.4609-4.19922 22.9297-4.66797L25.8398-7.58789C26.3086-8.05664 26.2891-8.65234 25.8105-9.13086L25.0391-9.89258C24.5605-10.3711 24.1895-10.5273 23.7109-10.4883L23.1348-10.4395L22.4902-11.0742L22.7344-12.1973C22.8613-12.7637 22.7051-13.2031 22.1191-13.7891L19.9219-15.9766C16.582-19.2969 12.1484-19.2188 9.25781-16.3281ZM10.752-15.957C13.1836-17.7344 16.4746-17.4316 18.7012-15.2051L21.1328-12.793C21.3672-12.5586 21.4062-12.373 21.3379-12.0312L21.0156-10.5469L22.5195-9.0625L23.5059-9.12109C23.7598-9.13086 23.8379-9.11133 24.0332-8.91602L24.6094-8.33984L22.168-5.89844L21.5918-6.47461C21.3965-6.66992 21.3672-6.74805 21.377-7.01172L21.4453-7.98828L19.9512-9.47266L18.4277-9.21875C18.1055-9.15039 17.959-9.17969 17.7148-9.41406L15.7129-11.416C15.459-11.6504 15.4297-11.8164 15.5859-12.1875L16.4648-14.2773C14.9023-15.7324 12.8711-16.3574 10.8398-15.7617C10.6836-15.7227 10.625-15.8496 10.752-15.957Z"/>
  </g>
  <text style="stroke:none;fill:black;font-family:sans-serif;font-size:13;font-weight:bold;" transform="matrix(1 0 0 1 1289 1953)">Exporting</text>
  <text style="stroke:none;fill:black;font-family:sans-serif;font-size:13;" transform="matrix(1 0 0 1 1289 1971)">Symbols should be outlined when exporting to ensure the</text>
  <text style="stroke:none;fill:black;font-family:sans-serif;font-size:13;" transform="matrix(1 0 0 1 1289 1989)">design is preserved when submitting to Xcode.</text>
  <text id="template-version" style="stroke:none;fill:black;font-family:sans-serif;font-size:13;text-anchor:end;" transform="matrix(1 0 0 1 3036 1933)">Template v.2.0</text>
  <text style="stroke:none;fill:black;font-family:sans-serif;font-size:13;text-anchor:end;" transform="matrix(1 0 0 1 3036 1951)">Requires Xcode 12 or greater</text>
  <text id="descriptive-name" style="stroke:none;fill:black;font-family:sans-serif;font-size:13;text-anchor:end;" transform="matrix(1 0 0 1 3036 1969)">Generated from arrowshape.right.fill</text>
  <text style="stroke:none;fill:black;font-family:sans-serif;font-size:13;text-anchor:end;" transform="matrix(1 0 0 1 3036 1987)">Typeset at 100 points</text>
  <text style="stroke:none;fill:black;font-family:sans-serif;font-size:13;" transform="matrix(1 0 0 1 263 726)">Small</text>
  <text style="stroke:none;fill:black;font-family:sans-serif;font-size:13;" transform="matrix(1 0 0 1 263 1156)">Medium</text>
  <text style="stroke:none;fill:black;font-family:sans-serif;font-size:13;" transform="matrix(1 0 0 1 263 1586)">Large</text>
 </g>
 <g id="Guides">
  <g id="H-reference" style="fill:#27AAE1;stroke:none;" transform="matrix(1 0 0 1 339 696)">
   <path d="M0.993654 0L3.63775 0L29.3281-67.1323L30.0303-67.1323L30.0303-70.459L28.1226-70.459ZM11.6885-24.4799L46.9815-24.4799L46.2315-26.7285L12.4385-26.7285ZM55.1196 0L57.7637 0L30.6382-70.459L29.4326-70.459L29.4326-67.1323Z"/>
  </g>
  <line id="Baseline-S" style="fill:none;stroke:#27AAE1;opacity:1;stroke-width:0.5;" x1="263" x2="3036" y1="696" y2="696"/>
  <line id="Capline-S" style="fill:none;stroke:#27AAE1;opacity:1;stroke-width:0.5;" x1="263" x2="3036" y1="625.541" y2="625.541"/>
  <g id="H-reference" style="fill:#27AAE1;stroke:none;" transform="matrix(1 0 0 1 339 1126)">
   <path d="M0.993654 0L3.63775 0L29.3281-67.1323L30.0303-67.1323L30.0303-70.459L28.1226-70.459ZM11.6885-24.4799L46.9815-24.4799L46.2315-26.7285L12.4385-26.7285ZM55.1196 0L57.7637 0L30.6382-70.459L29.4326-70.459L29.4326-67.1323Z"/>
  </g>
  <line id="Baseline-M" style="fill:none;stroke:#27AAE1;opacity:1;stroke-width:0.5;" x1="263" x2="3036" y1="1126" y2="1126"/>
  <line id="Capline-M" style="fill:none;stroke:#27AAE1;opacity:1;stroke-width:0.5;" x1="263" x2="3036" y1="1055.54" y2="1055.54"/>
  <g id="H-reference" style="fill:#27AAE1;stroke:none;" transform="matrix(1 0 0 1 339 1556)">
   <path d="M0.993654 0L3.63775 0L29.3281-67.1323L30.0303-67.1323L30.0303-70.459L28.1226-70.459ZM11.6885-24.4799L46.9815-24.4799L46.2315-26.7285L12.4385-26.7285ZM55.1196 0L57.7637 0L30.6382-70.459L29.4326-70.459L29.4326-67.1323Z"/>
  </g>
  <line id="Baseline-L" style="fill:none;stroke:#27AAE1;opacity:1;stroke-width:0.5;" x1="263" x2="3036" y1="1556" y2="1556"/>
  <line id="Capline-L" style="fill:none;stroke:#27AAE1;opacity:1;stroke-width:0.5;" x1="263" x2="3036" y1="1485.54" y2="1485.54"/>
  <line id="left-margin" style="fill:none;stroke:#00AEEF;stroke-width:0.5;opacity:1.0;" x1="1387.89" x2="1387.89" y1="1030.79" y2="1150.12"/>
  <line id="right-margin" style="fill:none;stroke:#00AEEF;stroke-width:0.5;opacity:1.0;" x1="1511.8" x2="1511.8" y1="1030.79" y2="1150.12"/>
 </g>
 <g id="Symbols">
  <g id="Black-L" transform="matrix(1 0 0 1 2850.73 1556)">
   <path d="M156.442-35.2113C156.442-38.4476 155.118-41.9204 152.501-44.3969L102.006-90.9105C97.3899-95.1127 94.178-96.6699 89.9482-96.6699C83.0551-96.6699 77.8199-91.3199 77.8199-84.4916L77.8199-65.6836L33.8606-65.6836C22.1231-65.6836 15.235-58.78 15.235-47.0889L15.235-22.8193C15.235-11.1074 22.1231-4.283 33.8606-4.283L77.8199-4.283L77.8199 14.1939C77.8199 21.0222 83.0551 26.2473 89.9066 26.2473C94.37 26.2473 97.7861 24.5357 102.006 20.6116L152.442-25.9881C155.059-28.4438 156.442-32.171 156.442-35.2113Z"/>
  </g>
  <g id="Heavy-L" transform="matrix(1 0 0 1 2554.75 1556)">
   <path d="M154.891-35.2251C154.891-38.1961 153.713-41.386 151.121-43.8422L100.809-90.3348C96.5452-94.2347 93.6212-95.7378 89.6864-95.7378C83.4176-95.7378 78.7334-90.8522 78.7334-84.6851L78.7334-64.2828L32.7145-64.2828C21.6249-64.2828 15.1373-57.8166 15.1373-46.8099L15.1373-23.2239C15.1373-12.1871 21.6249-5.79563 32.7145-5.79563L78.7334-5.79563L78.7334 14.4161C78.7334 20.5831 83.4176 25.2877 89.6261 25.2877C93.7393 25.2877 96.9192 23.6809 100.809 20.0601L151.076-26.5935C153.663-29.0195 154.891-32.4181 154.891-35.2251Z"/>
  </g>
  <g id="Bold-L" transform="matrix(1 0 0 1 2259.01 1556)">
   <path d="M152.784-35.2405C152.784-37.8961 151.783-40.74 149.184-43.2029L99.095-89.6425C95.3138-93.1213 92.7359-94.5479 89.1848-94.5479C83.692-94.5479 79.6991-90.246 79.6991-84.8936L79.6991-62.5687L31.2557-62.5687C20.958-62.5687 14.9772-56.6479 14.9772-46.479L14.9772-23.6713C14.9772-13.4645 20.958-7.61086 31.2557-7.61086L79.6991-7.61086L79.6991 14.6405C79.6991 19.9929 83.692 24.0669 89.1088 24.0669C92.7767 24.0669 95.6498 22.5907 99.095 19.3762L149.155-27.2869C151.741-29.7118 152.784-32.7105 152.784-35.2405Z"/>
  </g>
  <g id="Semibold-L" transform="matrix(1 0 0 1 1962.97 1556)">
   <path d="M151.331-35.2511C151.331-37.6893 150.452-40.2947 147.849-42.7622L97.9134-89.1653C94.4649-92.3538 92.1256-93.7276 88.839-93.7276C83.8811-93.7276 80.3648-89.8281 80.3648-85.0373L80.3648-61.3869L30.2501-61.3869C20.4982-61.3869 14.8668-55.8421 14.8668-46.2509L14.8668-23.9797C14.8668-14.3451 20.4982-8.86227 30.2501-8.86227L80.3648-8.86227L80.3648 14.7952C80.3648 19.586 83.8811 23.2253 88.7523 23.2253C92.1132 23.2253 94.7746 21.8392 97.9134 18.9048L147.83-27.7648C150.415-30.189 151.331-32.9121 151.331-35.2511Z"/>
  </g>
  <g id="Medium-L" transform="matrix(1 0 0 1 1666.77 1556)">
   <path d="M150.23-35.2592C150.23-37.5324 149.443-39.9571 146.836-42.4281L97.0174-88.8035C93.8213-91.7718 91.6629-93.1056 88.5768-93.1056C84.0246-93.1056 80.8696-89.5112 80.8696-85.1462L80.8696-60.4909L29.4876-60.4909C20.1496-60.4909 14.7831-55.2312 14.7831-46.078L14.7831-24.2135C14.7831-15.0128 20.1496-9.81114 29.4876-9.81114L80.8696-9.81114L80.8696 14.9125C80.8696 19.2775 84.0246 22.5872 88.4819 22.5872C91.61 22.5872 94.1111 21.2693 97.0174 18.5473L146.826-28.1272C149.41-30.5508 150.23-33.0649 150.23-35.2592Z"/>
  </g>
  <g id="Regular-L" transform="matrix(1 0 0 1 1370.72 1556)">
   <path d="M148.793-35.2697C148.793-37.3279 148.127-39.5167 145.516-41.9922L95.8488-88.3316C92.9817-91.0127 91.0593-92.2943 88.2348-92.2943C84.2116-92.2943 81.528-89.0979 81.528-85.2883L81.528-59.3221L28.493-59.3221C19.6948-59.3221 14.6739-54.4344 14.6739-45.8524L14.6739-24.5185C14.6739-15.8838 19.6948-11.0488 28.493-11.0488L81.528-11.0488L81.528 15.0655C81.528 18.8751 84.2116 21.7549 88.1292 21.7549C90.9537 21.7549 93.2455 20.526 95.8488 18.0811L145.516-28.5999C148.099-31.0227 148.793-33.2643 148.793-35.2697Z"/>
  </g>
  <g id="Light-L" transform="matrix(1 0 0 1 1075.16 1556)">
   <path d="M146.14-35.2697C146.14-37.1943 145.569-39.1731 142.71-41.8586L93.1768-87.988C90.9396-90.0775 89.1889-91.2446 86.7461-91.2446C83.2764-91.2446 81.1272-88.5062 81.1272-85.2311L81.1272-58.2724L27.2333-58.2724C18.9123-58.2724 14.3113-53.7855 14.3113-45.7188L14.3113-24.4804C14.3113-16.38 18.9123-11.9267 27.2333-11.9267L81.1272-11.9267L81.1272 14.8938C81.1272 18.1689 83.2764 20.7052 86.6788 20.7052C89.1216 20.7052 91.108 19.5718 93.1768 17.6039L142.71-28.7145C145.523-31.3663 146.14-33.3788 146.14-35.2697Z"/>
  </g>
  <g id="Thin-L" transform="matrix(1 0 0 1 779.959 1556)">
   <path d="M142.631-35.2697C142.631-37.0176 142.187-38.7188 138.999-41.6819L89.643-87.5337C88.2387-88.8406 86.7152-89.8563 84.7773-89.8563C82.0396-89.8563 80.5971-87.7238 80.5971-85.1554L80.5971-56.8841L25.5674-56.8841C17.8774-56.8841 13.8317-52.9272 13.8317-45.5421L13.8317-24.4299C13.8317-17.0363 17.8774-13.0878 25.5674-13.0878L80.5971-13.0878L80.5971 14.6666C80.5971 17.235 82.0396 19.3169 84.7604 19.3169C86.6983 19.3169 88.2809 18.3097 89.643 16.9729L138.999-28.8659C142.115-31.8206 142.631-33.5303 142.631-35.2697Z"/>
  </g>
  <g id="Ultralight-L" transform="matrix(1 0 0 1 484.024 1556)">
   <path d="M140.834-35.2697C140.834-36.9271 140.455-38.4861 137.099-41.5914L87.833-87.3009C86.8553-88.2071 85.4482-89.1452 83.7688-89.1452C81.4061-89.1452 80.3256-87.323 80.3256-85.1166L80.3256-56.173L24.7141-56.173C17.3473-56.173 13.586-52.4877 13.586-45.4516L13.586-24.404C13.586-17.3724 17.3473-13.6826 24.7141-13.6826L80.3256-13.6826L80.3256 14.5502C80.3256 16.7566 81.4061 18.6058 83.7778 18.6058C85.4572 18.6058 86.8329 17.6632 87.833 16.6497L137.099-28.9435C140.37-32.0534 140.834-33.6078 140.834-35.2697Z"/>
  </g>
  <g id="Black-M" transform="matrix(1 0 0 1 2868.89 1126)">
   <path d="M122.176-35.2035C122.176-37.9207 121.038-40.8259 118.954-42.7905L79.6955-78.8161C75.9014-82.2515 73.1889-83.4888 69.71-83.4888C63.908-83.4888 59.451-79.0069 59.451-73.2209L59.451-59.8852L27.0475-59.8852C17.4617-59.8852 11.8381-54.2151 11.8381-44.6392L11.8381-25.2618C11.8381-15.6804 17.4617-10.0729 27.0475-10.0729L59.451-10.0729L59.451 2.84672C59.451 8.63277 63.908 13.0817 69.699 13.0817C73.4063 13.0817 76.2143 11.6786 79.6955 8.44227L118.897-27.565C120.981-29.5241 122.176-32.6632 122.176-35.2035Z"/>
  </g>
  <g id="Heavy-M" transform="matrix(1 0 0 1 2572.78 1126)">
   <path d="M120.905-35.217C120.905-37.6872 119.9-40.3352 117.864-42.2606L78.7716-78.285C75.264-81.4794 72.817-82.6745 69.5914-82.6745C64.3487-82.6745 60.381-78.6043 60.381-73.4153L60.381-58.6127L26.0433-58.6127C17.047-58.6127 11.776-53.3332 11.776-44.3787L11.776-25.6609C11.776-16.6901 17.047-11.4706 26.0433-11.4706L60.381-11.4706L60.381 3.07973C60.381 8.26867 64.3487 12.2404 69.5586 12.2404C72.9587 12.2404 75.5641 10.9309 78.7716 7.94715L117.821-28.1463C119.854-30.0552 120.905-32.8941 120.905-35.217Z"/>
  </g>
  <g id="Bold-M" transform="matrix(1 0 0 1 2276.74 1126)">
   <path d="M119.482-35.2321C119.482-37.426 118.628-39.7863 116.645-41.6677L77.7381-77.6909C74.551-80.6157 72.4011-81.7635 69.4587-81.7635C64.8416-81.7635 61.4213-78.1538 61.4213-73.6328L61.4213-57.1892L24.92-57.1892C16.583-57.1892 11.7066-52.3466 11.7066-44.0874L11.7066-26.1074C11.7066-17.8196 16.583-13.0341 24.92-13.0341L61.4213-13.0341L61.4213 3.34038C61.4213 7.86138 64.8416 11.2993 69.4015 11.2993C72.458 11.2993 74.8368 10.0945 77.7381 7.3933L116.617-28.7965C118.594-30.6493 119.482-33.1525 119.482-35.2321Z"/>
  </g>
  <g id="Semibold-M" transform="matrix(1 0 0 1 1980.5 1126)">
   <path d="M118.501-35.2425C118.501-37.2459 117.75-39.4079 115.804-41.2591L77.0256-77.2813C74.0594-80.0203 72.1143-81.1355 69.3673-81.1355C65.1814-81.1355 62.1384-77.8433 62.1384-73.7828L62.1384-56.2079L24.1456-56.2079C16.2632-56.2079 11.6587-51.6665 11.6587-43.8866L11.6587-26.4152C11.6587-18.5983 16.2632-14.112 24.1456-14.112L62.1384-14.112L62.1384 3.52008C62.1384 7.58059 65.1814 10.6505 69.2932 10.6505C72.1128 10.6505 74.3354 9.5179 77.0256 7.01147L115.786-29.2448C117.725-31.0589 118.501-33.3305 118.501-35.2425Z"/>
  </g>
  <g id="Medium-M" transform="matrix(1 0 0 1 1684.14 1126)">
   <path d="M117.758-35.2504C117.758-37.1094 117.085-39.121 115.167-40.9492L76.4853-76.9707C73.6867-79.5688 71.8969-80.6593 69.2979-80.6593C65.4391-80.6593 62.6822-77.6079 62.6822-73.8965L62.6822-55.4638L23.5584-55.4638C16.0207-55.4638 11.6224-51.1507 11.6224-43.7343L11.6224-26.6486C11.6224-19.1887 16.0207-14.9294 23.5584-14.9294L62.6822-14.9294L62.6822 3.65633C62.6822 7.36768 65.4391 10.1585 69.2111 10.1585C71.8511 10.1585 73.9552 9.0807 76.4853 6.72196L115.157-29.5847C117.066-31.3695 117.758-33.4656 117.758-35.2504Z"/>
  </g>
  <g id="Regular-M" transform="matrix(1 0 0 1 1387.89 1126)">
   <path d="M116.788-35.2606C116.788-36.9313 116.217-38.7467 114.336-40.545L75.7807-76.5656C73.2005-78.98 71.6133-80.0381 69.2075-80.0381C65.7752-80.0381 63.3915-77.3007 63.3915-74.0448L63.3915-54.4932L22.7925-54.4932C15.7043-54.4932 11.5751-50.4781 11.5751-43.5356L11.5751-26.953C11.5751-19.9588 15.7043-15.9954 22.7925-15.9954L63.3915-15.9954L63.3915 3.83404C63.3915 7.08998 65.7752 9.51686 69.104 9.51686C71.5098 9.51686 73.4593 8.51044 75.7807 6.34433L114.336-30.0281C116.207-31.7746 116.788-33.6417 116.788-35.2606Z"/>
  </g>
  <g id="Light-M" transform="matrix(1 0 0 1 1092.21 1126)">
   <path d="M114.409-35.2606C114.409-36.8115 113.925-38.4387 111.82-40.4252L73.3851-76.2577C71.3697-78.1415 69.9364-79.097 67.8728-79.097C64.9368-79.097 63.0322-76.7703 63.0322-73.9935L63.0322-53.5521L21.6632-53.5521C15.0028-53.5521 11.25-49.8963 11.25-43.4158L11.25-26.9188C11.25-20.4037 15.0028-16.7825 21.6632-16.7825L63.0322-16.7825L63.0322 3.68005C63.0322 6.45688 64.9368 8.57576 67.8035 8.57576C69.8671 8.57576 71.5429 7.65489 73.3851 5.91656L111.82-30.1307C113.897-32.0826 114.409-33.7444 114.409-35.2606Z"/>
  </g>
  <g id="Thin-M" transform="matrix(1 0 0 1 796.855 1126)">
   <path d="M111.264-35.2606C111.264-36.6531 110.892-38.0314 108.494-40.2668L70.2169-75.8503C68.9482-77.0326 67.7186-77.8524 66.1076-77.8524C63.8279-77.8524 62.5569-76.0688 62.5569-73.9256L62.5569-52.3074L20.1696-52.3074C14.0749-52.3074 10.82-49.1269 10.82-43.2574L10.82-26.8735C10.82-20.9921 14.0749-17.8235 20.1696-17.8235L62.5569-17.8235L62.5569 3.47637C62.5569 5.61955 63.8279 7.33108 66.0836 7.33108C67.6946 7.33108 69.0082 6.52336 70.2169 5.35079L108.494-30.2665C110.842-32.4899 111.264-33.8802 111.264-35.2606Z"/>
  </g>
  <g id="Ultralight-M" transform="matrix(1 0 0 1 500.839 1126)">
   <path d="M109.652-35.2606C109.652-36.572 109.339-37.8227 106.79-40.1857L68.5941-75.6417C67.7079-76.4647 66.5826-77.2148 65.2035-77.2148C63.2599-77.2148 62.3135-75.7094 62.3135-73.8908L62.3135-51.6699L19.4045-51.6699C13.5997-51.6699 10.5998-48.7328 10.5998-43.1763L10.5998-26.8504C10.5998-21.2935 13.5997-18.3567 19.4045-18.3567L62.3135-18.3567L62.3135 3.37205C62.3135 5.19067 63.2599 6.69356 65.2027 6.69356C66.5818 6.69356 67.71 5.9438 68.5941 5.06101L106.79-30.336C109.277-32.6986 109.652-33.9497 109.652-35.2606Z"/>
  </g>
  <g id="Black-S" transform="matrix(1 0 0 1 2882.72 696)">
   <path d="M95.9961-35.2051C95.9961-37.4023 95.0684-39.7461 93.4082-41.3086L62.5977-69.5312C59.5703-72.2656 57.373-73.2422 54.5898-73.2422C49.9023-73.2422 46.2891-69.6289 46.2891-64.9414L46.2891-54.8828L21.4355-54.8828C13.7695-54.8828 9.27734-50.3418 9.27734-42.6758L9.27734-27.2949C9.27734-19.6289 13.7695-15.1367 21.4355-15.1367L46.2891-15.1367L46.2891-5.46875C46.2891-0.78125 49.9023 2.83203 54.5898 2.83203C57.5684 2.83203 59.8145 1.70898 62.5977-0.878906L93.3594-29.0527C95.0195-30.6152 95.9961-33.1543 95.9961-35.2051Z"/>
  </g>
  <g id="Heavy-S" transform="matrix(1 0 0 1 2586.39 696)">
   <path d="M95.2124-35.2166C95.2124-37.218 94.3884-39.3658 92.7974-40.8707L62.1136-69.1164C59.2592-71.7125 57.2693-72.666 54.659-72.666C50.3864-72.666 47.1303-69.3523 47.1303-65.1143L47.1303-53.9148L20.721-53.9148C13.5045-53.9148 9.26582-49.6619 9.26582-42.4683L9.26582-27.6407C9.26582-20.4356 13.5045-16.2315 20.721-16.2315L47.1303-16.2315L47.1303-5.24979C47.1303-1.01174 50.3864 2.23276 54.6359 2.23276C57.3955 2.23276 59.5033 1.17886 62.1136-1.24769L92.7601-29.5368C94.3511-31.0301 95.2124-33.3387 95.2124-35.2166Z"/>
  </g>
  <g id="Bold-S" transform="matrix(1 0 0 1 2290.11 696)">
   <path d="M94.3359-35.2295C94.3359-37.0117 93.6279-38.9404 92.1143-40.3809L61.5723-68.6523C58.9111-71.0938 57.1533-72.0215 54.7363-72.0215C50.9277-72.0215 48.0713-69.043 48.0713-65.3076L48.0713-52.832L19.9219-52.832C13.208-52.832 9.25293-48.9014 9.25293-42.2363L9.25293-28.0273C9.25293-21.3379 13.208-17.4561 19.9219-17.4561L48.0713-17.4561L48.0713-5.00488C48.0713-1.26953 50.9277 1.5625 54.6875 1.5625C57.2021 1.5625 59.1553 0.585938 61.5723-1.66016L92.0898-30.0781C93.6035-31.4941 94.3359-33.5449 94.3359-35.2295Z"/>
  </g>
  <g id="Semibold-S" transform="matrix(1 0 0 1 1993.7 696)">
   <path d="M93.7316-35.2384C93.7316-36.8695 93.1036-38.6472 91.6433-40.0432L61.199-68.3324C58.6712-70.6672 57.0733-71.5771 54.7896-71.5771C51.301-71.5771 48.72-68.8297 48.72-65.4409L48.72-52.0855L19.3709-52.0855C13.0036-52.0855 9.24404-48.3771 9.24404-42.0764L9.24404-28.2939C9.24404-21.96 13.0036-18.3003 19.3709-18.3003L48.72-18.3003L48.72-4.83604C48.72-1.44727 51.301 1.10039 54.723 1.10039C57.0688 1.10039 58.9153 0.177148 61.199-1.94453L91.6277-30.4514C93.0881-31.8141 93.7316-33.6871 93.7316-35.2384Z"/>
  </g>
  <g id="Medium-S" transform="matrix(1 0 0 1 1697.21 696)">
   <path d="M93.2734-35.2451C93.2734-36.7617 92.7061-38.4248 91.2861-39.7871L60.916-68.0898C58.4893-70.3438 57.0127-71.2402 54.8301-71.2402C51.584-71.2402 49.2119-68.668 49.2119-65.542L49.2119-51.5195L18.9531-51.5195C12.8486-51.5195 9.2373-47.9795 9.2373-41.9551L9.2373-28.4961C9.2373-22.4316 12.8486-18.9404 18.9531-18.9404L49.2119-18.9404L49.2119-4.70801C49.2119-1.58203 51.584 0.75 54.75 0.75C56.9678 0.75 58.7334-0.132812 60.916-2.16016L91.2773-30.7344C92.6973-32.0566 93.2734-33.7949 93.2734-35.2451Z"/>
  </g>
  <g id="Regular-S" transform="matrix(1 0 0 1 1400.8 696)">
   <path d="M92.6758-35.2539C92.6758-36.6211 92.1875-38.1348 90.8203-39.4531L60.5469-67.7734C58.252-69.9219 56.9336-70.8008 54.8828-70.8008C51.9531-70.8008 49.8535-68.457 49.8535-65.6738L49.8535-50.7812L18.4082-50.7812C12.6465-50.7812 9.22852-47.4609 9.22852-41.7969L9.22852-28.7598C9.22852-23.0469 12.6465-19.7754 18.4082-19.7754L49.8535-19.7754L49.8535-4.54102C49.8535-1.75781 51.9531 0.292969 54.7852 0.292969C56.8359 0.292969 58.4961-0.537109 60.5469-2.44141L90.8203-31.1035C92.1875-32.373 92.6758-33.9355 92.6758-35.2539Z"/>
  </g>
  <g id="Light-S" transform="matrix(1 0 0 1 1104.99 696)">
   <path d="M90.5718-35.2539C90.5718-36.5151 90.1592-37.8623 88.5952-39.3472L58.4278-67.501C56.6323-69.1802 55.4502-69.9683 53.7022-69.9683C51.2114-69.9683 49.5356-67.9878 49.5356-65.6284L49.5356-49.9487L17.4092-49.9487C12.0259-49.9487 8.94092-46.9463 8.94092-41.6909L8.94092-28.7295C8.94092-23.4404 12.0259-20.4717 17.4092-20.4717L49.5356-20.4717L49.5356-4.67725C49.5356-2.31787 51.2114-0.539544 53.6348-0.539544C55.3828-0.539544 56.8008-1.29394 58.4278-2.81982L88.5952-31.1943C90.1441-32.6455 90.5718-34.0264 90.5718-35.2539Z"/>
  </g>
  <g id="Thin-S" transform="matrix(1 0 0 1 809.484 696)">
   <path d="M87.7891-35.2539C87.7891-36.375 87.4766-37.502 85.6524-39.207L55.625-67.1406C54.4903-68.1992 53.4883-68.8672 52.1406-68.8672C50.2305-68.8672 49.1152-67.3672 49.1152-65.5684L49.1152-48.8477L16.0879-48.8477C11.2051-48.8477 8.56055-46.2656 8.56055-41.5508L8.56055-28.6895C8.56055-23.9609 11.2051-21.3926 16.0879-21.3926L49.1152-21.3926L49.1152-4.85742C49.1152-3.05858 50.2305-1.64061 52.1133-1.64061C53.461-1.64061 54.5586-2.29491 55.625-3.32031L85.6524-31.3145C87.4414-33.0059 87.7891-34.1465 87.7891-35.2539Z"/>
  </g>
  <g id="Ultralight-S" transform="matrix(1 0 0 1 513.388 696)">
   <path d="M86.3638-35.2539C86.3638-36.3032 86.1026-37.3174 84.1451-39.1353L54.1895-66.9561C53.3931-67.6968 52.4834-68.3032 51.3408-68.3032C49.728-68.3032 48.8999-67.0493 48.8999-65.5376L48.8999-48.2837L15.4112-48.2837C10.7847-48.2837 8.36573-45.917 8.36573-41.479L8.36573-28.6689C8.36573-24.2275 10.7847-21.8642 15.4112-21.8642L48.8999-21.8642L48.8999-4.9497C48.8999-3.43798 49.728-2.20457 51.334-2.20457C52.4766-2.20457 53.4102-2.8076 54.1895-3.57665L84.1451-31.376C86.0572-33.1904 86.3638-34.208 86.3638-35.2539Z"/>
  </g>
 </g>
</svg>
