<?xml version="1.0" encoding="UTF-8"?>
<!--Generator: Apple Native CoreSVG 175.5-->
<!DOCTYPE svg
PUBLIC "-//W3C//DTD SVG 1.1//EN"
       "http://www.w3.org/Graphics/SVG/1.1/DTD/svg11.dtd">
<svg version="1.1" xmlns="http://www.w3.org/2000/svg" xmlns:xlink="http://www.w3.org/1999/xlink" width="3300" height="2200">
 <!--glyph: "uni101245.medium", point size: 100.0, font version: "18.0d12e2", template writer version: "101"-->
 <g id="Notes">
  <rect height="2200" id="artboard" style="fill:white;opacity:1" width="3300" x="0" y="0"/>
  <line style="fill:none;stroke:black;opacity:1;stroke-width:0.5;" x1="263" x2="3036" y1="292" y2="292"/>
  <text style="stroke:none;fill:black;font-family:sans-serif;font-size:13;font-weight:bold;" transform="matrix(1 0 0 1 263 322)">Weight/Scale Variations</text>
  <text style="stroke:none;fill:black;font-family:sans-serif;font-size:13;text-anchor:middle;" transform="matrix(1 0 0 1 559.711 322)">Ultralight</text>
  <text style="stroke:none;fill:black;font-family:sans-serif;font-size:13;text-anchor:middle;" transform="matrix(1 0 0 1 856.422 322)">Thin</text>
  <text style="stroke:none;fill:black;font-family:sans-serif;font-size:13;text-anchor:middle;" transform="matrix(1 0 0 1 1153.13 322)">Light</text>
  <text style="stroke:none;fill:black;font-family:sans-serif;font-size:13;text-anchor:middle;" transform="matrix(1 0 0 1 1449.84 322)">Regular</text>
  <text style="stroke:none;fill:black;font-family:sans-serif;font-size:13;text-anchor:middle;" transform="matrix(1 0 0 1 1746.56 322)">Medium</text>
  <text style="stroke:none;fill:black;font-family:sans-serif;font-size:13;text-anchor:middle;" transform="matrix(1 0 0 1 2043.27 322)">Semibold</text>
  <text style="stroke:none;fill:black;font-family:sans-serif;font-size:13;text-anchor:middle;" transform="matrix(1 0 0 1 2339.98 322)">Bold</text>
  <text style="stroke:none;fill:black;font-family:sans-serif;font-size:13;text-anchor:middle;" transform="matrix(1 0 0 1 2636.69 322)">Heavy</text>
  <text style="stroke:none;fill:black;font-family:sans-serif;font-size:13;text-anchor:middle;" transform="matrix(1 0 0 1 2933.4 322)">Black</text>
  <line style="fill:none;stroke:black;opacity:1;stroke-width:0.5;" x1="263" x2="3036" y1="1903" y2="1903"/>
  <g transform="matrix(1 0 0 1 263 1933)">
   <path d="M9.24805 0.830078C13.5547 0.830078 17.1387-2.74414 17.1387-7.05078C17.1387-11.3574 13.5449-14.9316 9.23828-14.9316C4.94141-14.9316 1.36719-11.3574 1.36719-7.05078C1.36719-2.74414 4.95117 0.830078 9.24805 0.830078ZM9.24805-0.654297C5.70312-0.654297 2.87109-3.49609 2.87109-7.05078C2.87109-10.6055 5.69336-13.4473 9.23828-13.4473C12.793-13.4473 15.6445-10.6055 15.6445-7.05078C15.6445-3.49609 12.8027-0.654297 9.24805-0.654297ZM5.6543-7.05078C5.6543-6.62109 5.95703-6.32812 6.40625-6.32812L8.50586-6.32812L8.50586-4.20898C8.50586-3.76953 8.79883-3.4668 9.22852-3.4668C9.67773-3.4668 9.9707-3.76953 9.9707-4.20898L9.9707-6.32812L12.0898-6.32812C12.5293-6.32812 12.832-6.62109 12.832-7.05078C12.832-7.49023 12.5293-7.79297 12.0898-7.79297L9.9707-7.79297L9.9707-9.90234C9.9707-10.3516 9.67773-10.6543 9.22852-10.6543C8.79883-10.6543 8.50586-10.3516 8.50586-9.90234L8.50586-7.79297L6.40625-7.79297C5.95703-7.79297 5.6543-7.49023 5.6543-7.05078Z"/>
  </g>
  <g transform="matrix(1 0 0 1 281.867 1933)">
   <path d="M11.709 2.91016C17.1582 2.91016 21.6699-1.61133 21.6699-7.05078C21.6699-12.5 17.1484-17.0117 11.6992-17.0117C6.25977-17.0117 1.74805-12.5 1.74805-7.05078C1.74805-1.61133 6.26953 2.91016 11.709 2.91016ZM11.709 1.25C7.09961 1.25 3.41797-2.44141 3.41797-7.05078C3.41797-11.6602 7.08984-15.3516 11.6992-15.3516C16.3086-15.3516 20.0098-11.6602 20.0098-7.05078C20.0098-2.44141 16.3184 1.25 11.709 1.25ZM7.17773-7.05078C7.17773-6.57227 7.50977-6.25 8.00781-6.25L10.8789-6.25L10.8789-3.36914C10.8789-2.88086 11.2109-2.53906 11.6895-2.53906C12.1777-2.53906 12.5195-2.87109 12.5195-3.36914L12.5195-6.25L15.4004-6.25C15.8887-6.25 16.2305-6.57227 16.2305-7.05078C16.2305-7.53906 15.8887-7.88086 15.4004-7.88086L12.5195-7.88086L12.5195-10.752C12.5195-11.25 12.1777-11.5918 11.6895-11.5918C11.2109-11.5918 10.8789-11.25 10.8789-10.752L10.8789-7.88086L8.00781-7.88086C7.50977-7.88086 7.17773-7.53906 7.17773-7.05078Z"/>
  </g>
  <g transform="matrix(1 0 0 1 305.646 1933)">
   <path d="M14.9707 5.66406C21.9336 5.66406 27.6953-0.0976562 27.6953-7.05078C27.6953-14.0137 21.9238-19.7754 14.9609-19.7754C8.00781-19.7754 2.25586-14.0137 2.25586-7.05078C2.25586-0.0976562 8.01758 5.66406 14.9707 5.66406ZM14.9707 3.84766C8.93555 3.84766 4.08203-1.01562 4.08203-7.05078C4.08203-13.0957 8.92578-17.9492 14.9609-17.9492C21.0059-17.9492 25.8691-13.0957 25.8691-7.05078C25.8691-1.01562 21.0156 3.84766 14.9707 3.84766ZM9.19922-7.05078C9.19922-6.5332 9.57031-6.17188 10.1172-6.17188L14.0625-6.17188L14.0625-2.2168C14.0625-1.67969 14.4336-1.29883 14.9512-1.29883C15.4883-1.29883 15.8594-1.66992 15.8594-2.2168L15.8594-6.17188L19.8145-6.17188C20.3516-6.17188 20.7324-6.5332 20.7324-7.05078C20.7324-7.59766 20.3613-7.96875 19.8145-7.96875L15.8594-7.96875L15.8594-11.9141C15.8594-12.4609 15.4883-12.8418 14.9512-12.8418C14.4336-12.8418 14.0625-12.4609 14.0625-11.9141L14.0625-7.96875L10.1172-7.96875C9.57031-7.96875 9.19922-7.59766 9.19922-7.05078Z"/>
  </g>
  <text style="stroke:none;fill:black;font-family:sans-serif;font-size:13;font-weight:bold;" transform="matrix(1 0 0 1 263 1953)">Design Variations</text>
  <text style="stroke:none;fill:black;font-family:sans-serif;font-size:13;" transform="matrix(1 0 0 1 263 1971)">Symbols are supported in up to nine weights and three scales.</text>
  <text style="stroke:none;fill:black;font-family:sans-serif;font-size:13;" transform="matrix(1 0 0 1 263 1989)">For optimal layout with text and other symbols, vertically align</text>
  <text style="stroke:none;fill:black;font-family:sans-serif;font-size:13;" transform="matrix(1 0 0 1 263 2007)">symbols with the adjacent text.</text>
  <line style="fill:none;stroke:#00AEEF;stroke-width:0.5;opacity:1.0;" x1="776" x2="776" y1="1919" y2="1933"/>
  <g transform="matrix(1 0 0 1 776 1933)">
   <path d="M3.31055 0.15625C3.82812 0.15625 4.08203-0.0390625 4.26758-0.585938L5.52734-4.0332L11.2891-4.0332L12.5488-0.585938C12.7344-0.0390625 12.9883 0.15625 13.4961 0.15625C14.0137 0.15625 14.3457-0.15625 14.3457-0.644531C14.3457-0.810547 14.3164-0.966797 14.2383-1.17188L9.6582-13.3691C9.43359-13.9648 9.0332-14.2676 8.4082-14.2676C7.80273-14.2676 7.39258-13.9746 7.17773-13.3789L2.59766-1.16211C2.51953-0.957031 2.49023-0.800781 2.49023-0.634766C2.49023-0.146484 2.80273 0.15625 3.31055 0.15625ZM6.00586-5.51758L8.37891-12.0898L8.42773-12.0898L10.8008-5.51758Z"/>
  </g>
  <line style="fill:none;stroke:#00AEEF;stroke-width:0.5;opacity:1.0;" x1="793.197" x2="793.197" y1="1919" y2="1933"/>
  <text style="stroke:none;fill:black;font-family:sans-serif;font-size:13;font-weight:bold;" transform="matrix(1 0 0 1 776 1953)">Margins</text>
  <text style="stroke:none;fill:black;font-family:sans-serif;font-size:13;" transform="matrix(1 0 0 1 776 1971)">Leading and trailing margins on the left and right side of each symbol</text>
  <text style="stroke:none;fill:black;font-family:sans-serif;font-size:13;" transform="matrix(1 0 0 1 776 1989)">can be adjusted by modifying the x-location of the margin guidelines.</text>
  <text style="stroke:none;fill:black;font-family:sans-serif;font-size:13;" transform="matrix(1 0 0 1 776 2007)">Modifications are automatically applied proportionally to all</text>
  <text style="stroke:none;fill:black;font-family:sans-serif;font-size:13;" transform="matrix(1 0 0 1 776 2025)">scales and weights.</text>
  <g transform="matrix(1 0 0 1 1289 1933)">
   <path d="M2.8418 1.86523L4.54102 3.57422C5.40039 4.44336 6.38672 4.38477 7.31445 3.35938L18.0078-8.42773L17.041-9.4043L6.42578 2.27539C6.07422 2.67578 5.74219 2.77344 5.27344 2.30469L4.10156 1.14258C3.63281 0.683594 3.74023 0.341797 4.14062-0.0195312L15.6152-10.8203L14.6387-11.7871L3.04688-0.898438C2.06055 0.0195312 1.98242 0.996094 2.8418 1.86523ZM9.25781-16.3281C8.83789-15.918 8.80859-15.3418 9.04297-14.9512C9.27734-14.5898 9.73633-14.3555 10.3809-14.5215C11.8457-14.8633 13.3691-14.9219 14.7949-13.9844L14.209-12.5293C13.8672-11.6992 14.043-11.1133 14.5801-10.5664L16.875-8.25195C17.3633-7.76367 17.7734-7.74414 18.3398-7.8418L19.4043-8.03711L20.0684-7.36328L20.0293-6.80664C19.9902-6.30859 20.1172-5.92773 20.6055-5.44922L21.3672-4.70703C21.8457-4.22852 22.4609-4.19922 22.9297-4.66797L25.8398-7.58789C26.3086-8.05664 26.2891-8.65234 25.8105-9.13086L25.0391-9.89258C24.5605-10.3711 24.1895-10.5273 23.7109-10.4883L23.1348-10.4395L22.4902-11.0742L22.7344-12.1973C22.8613-12.7637 22.7051-13.2031 22.1191-13.7891L19.9219-15.9766C16.582-19.2969 12.1484-19.2188 9.25781-16.3281ZM10.752-15.957C13.1836-17.7344 16.4746-17.4316 18.7012-15.2051L21.1328-12.793C21.3672-12.5586 21.4062-12.373 21.3379-12.0312L21.0156-10.5469L22.5195-9.0625L23.5059-9.12109C23.7598-9.13086 23.8379-9.11133 24.0332-8.91602L24.6094-8.33984L22.168-5.89844L21.5918-6.47461C21.3965-6.66992 21.3672-6.74805 21.377-7.01172L21.4453-7.98828L19.9512-9.47266L18.4277-9.21875C18.1055-9.15039 17.959-9.17969 17.7148-9.41406L15.7129-11.416C15.459-11.6504 15.4297-11.8164 15.5859-12.1875L16.4648-14.2773C14.9023-15.7324 12.8711-16.3574 10.8398-15.7617C10.6836-15.7227 10.625-15.8496 10.752-15.957Z"/>
  </g>
  <text style="stroke:none;fill:black;font-family:sans-serif;font-size:13;font-weight:bold;" transform="matrix(1 0 0 1 1289 1953)">Exporting</text>
  <text style="stroke:none;fill:black;font-family:sans-serif;font-size:13;" transform="matrix(1 0 0 1 1289 1971)">Symbols should be outlined when exporting to ensure the</text>
  <text style="stroke:none;fill:black;font-family:sans-serif;font-size:13;" transform="matrix(1 0 0 1 1289 1989)">design is preserved when submitting to Xcode.</text>
  <text id="template-version" style="stroke:none;fill:black;font-family:sans-serif;font-size:13;text-anchor:end;" transform="matrix(1 0 0 1 3036 1933)">Template v.2.0</text>
  <text style="stroke:none;fill:black;font-family:sans-serif;font-size:13;text-anchor:end;" transform="matrix(1 0 0 1 3036 1951)">Requires Xcode 12 or greater</text>
  <text id="descriptive-name" style="stroke:none;fill:black;font-family:sans-serif;font-size:13;text-anchor:end;" transform="matrix(1 0 0 1 3036 1969)">Generated from arrowshape.left.fill</text>
  <text style="stroke:none;fill:black;font-family:sans-serif;font-size:13;text-anchor:end;" transform="matrix(1 0 0 1 3036 1987)">Typeset at 100 points</text>
  <text style="stroke:none;fill:black;font-family:sans-serif;font-size:13;" transform="matrix(1 0 0 1 263 726)">Small</text>
  <text style="stroke:none;fill:black;font-family:sans-serif;font-size:13;" transform="matrix(1 0 0 1 263 1156)">Medium</text>
  <text style="stroke:none;fill:black;font-family:sans-serif;font-size:13;" transform="matrix(1 0 0 1 263 1586)">Large</text>
 </g>
 <g id="Guides">
  <g id="H-reference" style="fill:#27AAE1;stroke:none;" transform="matrix(1 0 0 1 339 696)">
   <path d="M0.993654 0L3.63775 0L29.3281-67.1323L30.0303-67.1323L30.0303-70.459L28.1226-70.459ZM11.6885-24.4799L46.9815-24.4799L46.2315-26.7285L12.4385-26.7285ZM55.1196 0L57.7637 0L30.6382-70.459L29.4326-70.459L29.4326-67.1323Z"/>
  </g>
  <line id="Baseline-S" style="fill:none;stroke:#27AAE1;opacity:1;stroke-width:0.5;" x1="263" x2="3036" y1="696" y2="696"/>
  <line id="Capline-S" style="fill:none;stroke:#27AAE1;opacity:1;stroke-width:0.5;" x1="263" x2="3036" y1="625.541" y2="625.541"/>
  <g id="H-reference" style="fill:#27AAE1;stroke:none;" transform="matrix(1 0 0 1 339 1126)">
   <path d="M0.993654 0L3.63775 0L29.3281-67.1323L30.0303-67.1323L30.0303-70.459L28.1226-70.459ZM11.6885-24.4799L46.9815-24.4799L46.2315-26.7285L12.4385-26.7285ZM55.1196 0L57.7637 0L30.6382-70.459L29.4326-70.459L29.4326-67.1323Z"/>
  </g>
  <line id="Baseline-M" style="fill:none;stroke:#27AAE1;opacity:1;stroke-width:0.5;" x1="263" x2="3036" y1="1126" y2="1126"/>
  <line id="Capline-M" style="fill:none;stroke:#27AAE1;opacity:1;stroke-width:0.5;" x1="263" x2="3036" y1="1055.54" y2="1055.54"/>
  <g id="H-reference" style="fill:#27AAE1;stroke:none;" transform="matrix(1 0 0 1 339 1556)">
   <path d="M0.993654 0L3.63775 0L29.3281-67.1323L30.0303-67.1323L30.0303-70.459L28.1226-70.459ZM11.6885-24.4799L46.9815-24.4799L46.2315-26.7285L12.4385-26.7285ZM55.1196 0L57.7637 0L30.6382-70.459L29.4326-70.459L29.4326-67.1323Z"/>
  </g>
  <line id="Baseline-L" style="fill:none;stroke:#27AAE1;opacity:1;stroke-width:0.5;" x1="263" x2="3036" y1="1556" y2="1556"/>
  <line id="Capline-L" style="fill:none;stroke:#27AAE1;opacity:1;stroke-width:0.5;" x1="263" x2="3036" y1="1485.54" y2="1485.54"/>
  <line id="left-margin" style="fill:none;stroke:#00AEEF;stroke-width:0.5;opacity:1.0;" x1="1387.89" x2="1387.89" y1="1030.79" y2="1150.12"/>
  <line id="right-margin" style="fill:none;stroke:#00AEEF;stroke-width:0.5;opacity:1.0;" x1="1511.8" x2="1511.8" y1="1030.79" y2="1150.12"/>
 </g>
 <g id="Symbols">
  <g id="Black-L" transform="matrix(1 0 0 1 2850.73 1556)">
   <path d="M8.89094-35.2113C8.89094-32.171 10.2952-28.4438 12.8922-25.9881L63.327 20.6116C67.5693 24.5357 70.9841 26.2473 75.4475 26.2473C82.2782 26.2473 87.5354 21.0222 87.5354 14.1939L87.5354-4.283L131.474-4.283C143.231-4.283 150.12-11.1074 150.12-22.8193L150.12-47.0889C150.12-58.78 143.231-65.6836 131.474-65.6836L87.5354-65.6836L87.5354-84.4916C87.5354-91.3199 82.2782-96.6699 75.4059-96.6699C71.1773-96.6699 67.9446-95.1127 63.327-90.9105L12.8338-44.3969C10.2356-41.9204 8.89094-38.4476 8.89094-35.2113Z"/>
  </g>
  <g id="Heavy-L" transform="matrix(1 0 0 1 2554.75 1556)">
   <path d="M8.98863-35.2251C8.98863-32.4181 10.2468-29.0195 12.8091-26.5935L63.0707 20.0601C66.9964 23.6809 70.1707 25.2877 74.2839 25.2877C80.4622 25.2877 85.1822 20.5831 85.1822 14.4161L85.1822-5.79563L131.171-5.79563C142.285-5.79563 148.778-12.1871 148.778-23.2239L148.778-46.8099C148.778-57.8166 142.285-64.2828 131.171-64.2828L85.1822-64.2828L85.1822-84.6851C85.1822-90.8522 80.4622-95.7378 74.2235-95.7378C70.2944-95.7378 67.3402-94.2347 63.0707-90.3348L12.7644-43.8422C10.1966-41.386 8.98863-38.1961 8.98863-35.2251Z"/>
  </g>
  <g id="Bold-L" transform="matrix(1 0 0 1 2259.01 1556)">
   <path d="M9.14878-35.2405C9.14878-32.7105 10.2301-29.7118 12.7911-27.2869L62.8376 19.3762C66.3341 22.5907 69.1939 24.0669 72.8618 24.0669C78.2406 24.0669 82.2848 19.9929 82.2848 14.6405L82.2848-7.61086L130.69-7.61086C141.013-7.61086 147.007-13.4645 147.007-23.6713L147.007-46.479C147.007-56.6479 141.013-62.5687 130.69-62.5687L82.2848-62.5687L82.2848-84.8936C82.2848-90.246 78.2406-94.5479 72.7858-94.5479C69.2479-94.5479 66.632-93.1213 62.8376-89.6425L12.7619-43.2029C10.1876-40.74 9.14878-37.8961 9.14878-35.2405Z"/>
  </g>
  <g id="Semibold-L" transform="matrix(1 0 0 1 1962.97 1556)">
   <path d="M9.25918-35.2511C9.25918-32.9121 10.2186-30.189 12.7786-27.7648L62.6769 18.9048C65.8775 21.8392 68.5205 23.2253 71.8814 23.2253C76.7091 23.2253 80.2873 19.586 80.2873 14.7952L80.2873-8.86227L130.359-8.86227C140.135-8.86227 145.785-14.3451 145.785-23.9797L145.785-46.2509C145.785-55.8421 140.135-61.3869 130.359-61.3869L80.2873-61.3869L80.2873-85.0373C80.2873-89.8281 76.7091-93.7276 71.7946-93.7276C68.5265-93.7276 66.1438-92.3538 62.6769-89.1653L12.7601-42.7622C10.1815-40.2947 9.25918-37.6893 9.25918-35.2511Z"/>
  </g>
  <g id="Medium-L" transform="matrix(1 0 0 1 1666.77 1556)">
   <path d="M9.3429-35.2592C9.3429-33.0649 10.2098-30.5508 12.7692-28.1272L62.555 18.5473C65.5313 21.2693 68.0098 22.5872 71.138 22.5872C75.5479 22.5872 78.7728 19.2775 78.7728 14.9125L78.7728-9.81114L130.107-9.81114C139.47-9.81114 144.859-15.0128 144.859-24.2135L144.859-46.078C144.859-55.2312 139.47-60.4909 130.107-60.4909L78.7728-60.4909L78.7728-85.1462C78.7728-89.5112 75.5479-93.1056 71.0431-93.1056C67.9795-93.1056 65.7736-91.7718 62.555-88.8035L12.7587-42.4281C10.1768-39.9571 9.3429-37.5324 9.3429-35.2592Z"/>
  </g>
  <g id="Regular-L" transform="matrix(1 0 0 1 1370.72 1556)">
   <path d="M9.45209-35.2697C9.45209-33.2643 10.1984-31.0227 12.757-28.5999L62.3961 18.0811C65.0797 20.526 67.3438 21.7549 70.1683 21.7549C74.0332 21.7549 76.7973 18.8751 76.7973 15.0655L76.7973-11.0488L129.78-11.0488C138.603-11.0488 143.651-15.8838 143.651-24.5185L143.651-45.8524C143.651-54.4344 138.603-59.3221 129.78-59.3221L76.7973-59.3221L76.7973-85.2883C76.7973-89.0979 74.0332-92.2943 70.0628-92.2943C67.266-92.2943 65.2908-91.0127 62.3961-88.3316L12.757-41.9922C10.1708-39.5167 9.45209-37.3279 9.45209-35.2697Z"/>
  </g>
  <g id="Light-L" transform="matrix(1 0 0 1 1075.16 1556)">
   <path d="M9.81471-35.2697C9.81471-33.3788 10.4656-31.3663 13.2913-28.7145L62.7778 17.6039C64.927 19.5718 66.8667 20.7052 69.3095 20.7052C72.6781 20.7052 74.9079 18.1689 74.9079 14.8938L74.9079-11.9267L128.768-11.9267C137.076-11.9267 141.724-16.38 141.724-24.4804L141.724-45.7188C141.724-53.7855 137.076-58.2724 128.768-58.2724L74.9079-58.2724L74.9079-85.2311C74.9079-88.5062 72.6781-91.2446 69.2421-91.2446C66.8461-91.2446 65.0618-90.0775 62.7778-87.988L13.2913-41.8586C10.4189-39.1731 9.81471-37.1943 9.81471-35.2697Z"/>
  </g>
  <g id="Thin-L" transform="matrix(1 0 0 1 779.959 1556)">
   <path d="M10.2943-35.2697C10.2943-33.5303 10.819-31.8206 13.9981-28.8659L63.2826 16.9729C64.7251 18.3097 66.2357 19.3169 68.1736 19.3169C70.886 19.3169 72.4089 17.235 72.4089 14.6666L72.4089-13.0878L127.43-13.0878C135.057-13.0878 139.174-17.0363 139.174-24.4299L139.174-45.5421C139.174-52.9272 135.057-56.8841 127.43-56.8841L72.4089-56.8841L72.4089-85.1554C72.4089-87.7238 70.886-89.8563 68.1567-89.8563C66.2908-89.8563 64.7589-88.8406 63.2826-87.5337L13.9981-41.6819C10.747-38.7188 10.2943-37.0176 10.2943-35.2697Z"/>
  </g>
  <g id="Ultralight-L" transform="matrix(1 0 0 1 484.024 1556)">
   <path d="M10.5399-35.2697C10.5399-33.6078 11-32.0534 14.3601-28.9435L63.5412 16.6497C64.6217 17.6632 65.9124 18.6058 67.5918 18.6058C69.968 18.6058 71.129 16.7566 71.129 14.5502L71.129-13.6826L126.745-13.6826C134.022-13.6826 137.869-17.3724 137.869-24.404L137.869-45.4516C137.869-52.4877 134.022-56.173 126.745-56.173L71.129-56.173L71.129-85.1166C71.129-87.323 69.968-89.1452 67.6008-89.1452C66.0063-89.1452 64.6037-88.2071 63.5412-87.3009L14.3601-41.5914C10.9151-38.4861 10.5399-36.9271 10.5399-35.2697Z"/>
  </g>
  <g id="Black-M" transform="matrix(1 0 0 1 2868.89 1126)">
   <path d="M6.85335-35.2035C6.85335-32.6632 8.05398-29.5241 10.1319-27.565L49.3341 8.44227C52.8204 11.6786 55.6288 13.0817 59.336 13.0817C65.1215 13.0817 69.5838 8.63277 69.5838 2.84672L69.5838-10.0729L101.982-10.0729C111.573-10.0729 117.197-15.6804 117.197-25.2618L117.197-44.6392C117.197-54.2151 111.573-59.8852 101.982-59.8852L69.5838-59.8852L69.5838-73.2209C69.5838-79.0069 65.1215-83.4888 59.3251-83.4888C55.8459-83.4888 53.1279-82.2515 49.3341-78.8161L10.0748-42.7905C7.99717-40.8259 6.85335-37.9207 6.85335-35.2035Z"/>
  </g>
  <g id="Heavy-M" transform="matrix(1 0 0 1 2572.78 1126)">
   <path d="M6.9154-35.217C6.9154-32.8941 7.98198-30.0552 10.0014-28.1463L49.0483 7.94715C52.2745 10.9309 54.8776 12.2404 58.2778 12.2404C63.4712 12.2404 67.4576 8.26867 67.4576 3.07973L67.4576-11.4706L101.779-11.4706C110.789-11.4706 116.063-16.6901 116.063-25.6609L116.063-44.3787C116.063-53.3332 110.789-58.6127 101.779-58.6127L67.4576-58.6127L67.4576-73.4153C67.4576-78.6043 63.4712-82.6745 58.2449-82.6745C55.0216-82.6745 52.5582-81.4794 49.0483-78.285L9.95777-42.2606C7.93608-40.3352 6.9154-37.6872 6.9154-35.217Z"/>
  </g>
  <g id="Bold-M" transform="matrix(1 0 0 1 2276.74 1126)">
   <path d="M6.98482-35.2321C6.98482-33.1525 7.90143-30.6493 9.85537-28.7965L48.7287 7.3933C51.6637 10.0945 54.0374 11.2993 57.0939 11.2993C61.6252 11.2993 65.0793 7.86138 65.0793 3.34038L65.0793-13.0341L101.552-13.0341C109.912-13.0341 114.794-17.8196 114.794-26.1074L114.794-44.0874C114.794-52.3466 109.912-57.1892 101.552-57.1892L65.0793-57.1892L65.0793-73.6328C65.0793-78.1538 61.6252-81.7635 57.0367-81.7635C54.0995-81.7635 51.9209-80.6157 48.7287-77.6909L9.82682-41.6677C7.86775-39.7863 6.98482-37.426 6.98482-35.2321Z"/>
  </g>
  <g id="Semibold-M" transform="matrix(1 0 0 1 1980.5 1126)">
   <path d="M7.03267-35.2425C7.03267-33.3305 7.84591-31.0589 9.75471-29.2448L48.5083 7.01147C51.2427 9.5179 53.4581 10.6505 56.2778 10.6505C60.3525 10.6505 63.4396 7.58059 63.4396 3.52008L63.4396-14.112L101.395-14.112C109.308-14.112 113.919-18.5983 113.919-26.4152L113.919-43.8866C113.919-51.6665 109.308-56.2079 101.395-56.2079L63.4396-56.2079L63.4396-73.7828C63.4396-77.8433 60.3525-81.1355 56.2037-81.1355C53.4638-81.1355 51.4816-80.0203 48.5083-77.2813L9.73655-41.2591C7.82064-39.4079 7.03267-37.2459 7.03267-35.2425Z"/>
  </g>
  <g id="Medium-M" transform="matrix(1 0 0 1 1684.14 1126)">
   <path d="M7.06896-35.2504C7.06896-33.4656 7.8038-31.3695 9.67838-29.5847L48.3413 6.72196C50.9234 9.0807 53.0189 10.1585 55.6589 10.1585C59.3875 10.1585 62.1964 7.36768 62.1964 3.65633L62.1964-14.9294L101.277-14.9294C108.849-14.9294 113.256-19.1887 113.256-26.6486L113.256-43.7343C113.256-51.1507 108.849-55.4638 101.277-55.4638L62.1964-55.4638L62.1964-73.8965C62.1964-77.6079 59.3875-80.6593 55.5721-80.6593C52.9817-80.6593 51.1485-79.5688 48.3413-76.9707L9.66811-40.9492C7.78492-39.121 7.06896-37.1094 7.06896-35.2504Z"/>
  </g>
  <g id="Regular-M" transform="matrix(1 0 0 1 1387.89 1126)">
   <path d="M7.11629-35.2606C7.11629-33.6417 7.74889-31.7746 9.57883-30.0281L48.1233 6.34433C50.507 8.51044 52.446 9.51686 54.8518 9.51686C58.1288 9.51686 60.5748 7.08998 60.5748 3.83404L60.5748-15.9954L101.122-15.9954C108.251-15.9954 112.391-19.9588 112.391-26.953L112.391-43.5356C112.391-50.4781 108.251-54.4932 101.122-54.4932L60.5748-54.4932L60.5748-74.0448C60.5748-77.3007 58.1288-80.0381 54.7483-80.0381C52.353-80.0381 50.714-78.98 48.1233-76.5656L9.57883-40.545C7.73834-38.7467 7.11629-36.9313 7.11629-35.2606Z"/>
  </g>
  <g id="Light-M" transform="matrix(1 0 0 1 1092.21 1126)">
   <path d="M7.4414-35.2606C7.4414-33.7444 7.98844-32.0826 10.0579-30.1307L48.4655 5.91656C50.3701 7.65489 52.0182 8.57576 54.0818 8.57576C56.9139 8.57576 58.8808 6.45688 58.8808 3.68005L58.8808-16.7825L100.215-16.7825C106.883-16.7825 110.663-20.4037 110.663-26.9188L110.663-43.4158C110.663-49.8963 106.883-53.5521 100.215-53.5521L58.8808-53.5521L58.8808-73.9935C58.8808-76.7703 56.9139-79.097 54.0125-79.097C51.9766-79.097 50.5087-78.1415 48.4655-76.2577L10.0579-40.4252C7.96078-38.4387 7.4414-36.8115 7.4414-35.2606Z"/>
  </g>
  <g id="Thin-M" transform="matrix(1 0 0 1 796.855 1126)">
   <path d="M7.87138-35.2606C7.87138-33.8802 8.30527-32.4899 10.6916-30.2665L48.9182 5.35079C50.1891 6.52336 51.4525 7.33108 53.0634 7.33108C55.3072 7.33108 56.6404 5.61955 56.6404 3.47637L56.6404-17.8235L99.0157-17.8235C105.072-17.8235 108.377-20.9921 108.377-26.8735L108.377-43.2574C108.377-49.1269 105.072-52.3074 99.0157-52.3074L56.6404-52.3074L56.6404-73.9256C56.6404-76.0688 55.3072-77.8524 53.0394-77.8524C51.4787-77.8524 50.2371-77.0326 48.9182-75.8503L10.6916-40.2668C8.25498-38.0314 7.87138-36.6531 7.87138-35.2606Z"/>
  </g>
  <g id="Ultralight-M" transform="matrix(1 0 0 1 500.839 1126)">
   <path d="M8.09161-35.2606C8.09161-33.9497 8.46755-32.6986 11.0161-30.336L49.15 5.06101C50.0963 5.9438 51.1627 6.69356 52.5418 6.69356C54.4842 6.69356 55.4928 5.19067 55.4928 3.37205L55.4928-18.3567L98.4014-18.3567C104.145-18.3567 107.207-21.2935 107.207-26.8504L107.207-43.1763C107.207-48.7328 104.145-51.6699 98.4014-51.6699L55.4928-51.6699L55.4928-73.8908C55.4928-75.7094 54.4842-77.2148 52.5409-77.2148C51.2237-77.2148 50.098-76.4647 49.15-75.6417L11.0161-40.1857C8.40566-37.8227 8.09161-36.572 8.09161-35.2606Z"/>
  </g>
  <g id="Black-S" transform="matrix(1 0 0 1 2882.72 696)">
   <path d="M5.37109-35.2051C5.37109-33.1543 6.34766-30.6152 8.00781-29.0527L38.7695-0.878906C41.5527 1.70898 43.7988 2.83203 46.7773 2.83203C51.4648 2.83203 55.0781-0.78125 55.0781-5.46875L55.0781-15.1367L79.9316-15.1367C87.5977-15.1367 92.0898-19.6289 92.0898-27.2949L92.0898-42.6758C92.0898-50.3418 87.5977-54.8828 79.9316-54.8828L55.0781-54.8828L55.0781-64.9414C55.0781-69.6289 51.4648-73.2422 46.7773-73.2422C43.9941-73.2422 41.7969-72.2656 38.7695-69.5312L7.95898-41.3086C6.29883-39.7461 5.37109-37.4023 5.37109-35.2051Z"/>
  </g>
  <g id="Heavy-S" transform="matrix(1 0 0 1 2586.39 696)">
   <path d="M5.38262-35.2166C5.38262-33.3387 6.25546-31.0301 7.83495-29.5368L38.4814-1.24769C41.1033 1.17886 43.2111 2.23276 45.9706 2.23276C50.2087 2.23276 53.4762-1.01174 53.4762-5.24979L53.4762-16.2315L79.874-16.2315C87.1021-16.2315 91.3408-20.4356 91.3408-27.6407L91.3408-42.4683C91.3408-49.6619 87.1021-53.9148 79.874-53.9148L53.4762-53.9148L53.4762-65.1143C53.4762-69.3523 50.2087-72.666 45.9476-72.666C43.3372-72.666 41.3359-71.7125 38.4814-69.1164L7.79764-40.8707C6.21816-39.3658 5.38262-37.218 5.38262-35.2166Z"/>
  </g>
  <g id="Bold-S" transform="matrix(1 0 0 1 2290.11 696)">
   <path d="M5.39551-35.2295C5.39551-33.5449 6.15234-31.4941 7.6416-30.0781L38.1592-1.66016C40.6006 0.585938 42.5537 1.5625 45.0684 1.5625C48.8037 1.5625 51.6846-1.26953 51.6846-5.00488L51.6846-17.4561L79.8096-17.4561C86.5479-17.4561 90.5029-21.3379 90.5029-28.0273L90.5029-42.2363C90.5029-48.9014 86.5479-52.832 79.8096-52.832L51.6846-52.832L51.6846-65.3076C51.6846-69.043 48.8037-72.0215 45.0195-72.0215C42.6025-72.0215 40.8203-71.0938 38.1592-68.6523L7.61719-40.3809C6.12793-38.9404 5.39551-37.0117 5.39551-35.2295Z"/>
  </g>
  <g id="Semibold-S" transform="matrix(1 0 0 1 1993.7 696)">
   <path d="M5.40439-35.2384C5.40439-33.6871 6.08125-31.8141 7.5083-30.4514L37.937-1.94453C40.254 0.177148 42.1005 1.10039 44.4463 1.10039C47.8351 1.10039 50.4493-1.44727 50.4493-4.83604L50.4493-18.3003L79.7651-18.3003C86.1657-18.3003 89.9253-21.96 89.9253-28.2939L89.9253-42.0764C89.9253-48.3771 86.1657-52.0855 79.7651-52.0855L50.4493-52.0855L50.4493-65.4409C50.4493-68.8297 47.8351-71.5771 44.3797-71.5771C42.096-71.5771 40.4648-70.6672 37.937-68.3324L7.49277-40.0432C6.06572-38.6472 5.40439-36.8695 5.40439-35.2384Z"/>
  </g>
  <g id="Medium-S" transform="matrix(1 0 0 1 1697.21 696)">
   <path d="M5.41113-35.2451C5.41113-33.7949 6.02734-32.0566 7.40723-30.7344L37.7686-2.16016C39.9912-0.132812 41.7568 0.75 43.9746 0.75C47.1006 0.75 49.5127-1.58203 49.5127-4.70801L49.5127-18.9404L79.7314-18.9404C85.876-18.9404 89.4873-22.4316 89.4873-28.4961L89.4873-41.9551C89.4873-47.9795 85.876-51.5195 79.7314-51.5195L49.5127-51.5195L49.5127-65.542C49.5127-68.668 47.1006-71.2402 43.8945-71.2402C41.7119-71.2402 40.1953-70.3438 37.7686-68.0898L7.39844-39.7871C6.01855-38.4248 5.41113-36.7617 5.41113-35.2451Z"/>
  </g>
  <g id="Regular-S" transform="matrix(1 0 0 1 1400.8 696)">
   <path d="M5.41992-35.2539C5.41992-33.9355 5.95703-32.373 7.27539-31.1035L37.5488-2.44141C39.6484-0.537109 41.3086 0.292969 43.3594 0.292969C46.1426 0.292969 48.291-1.75781 48.291-4.54102L48.291-19.7754L79.6875-19.7754C85.498-19.7754 88.916-23.0469 88.916-28.7598L88.916-41.7969C88.916-47.4609 85.498-50.7812 79.6875-50.7812L48.291-50.7812L48.291-65.6738C48.291-68.457 46.1426-70.8008 43.2617-70.8008C41.2109-70.8008 39.8438-69.9219 37.5488-67.7734L7.27539-39.4531C5.95703-38.1348 5.41992-36.6211 5.41992-35.2539Z"/>
  </g>
  <g id="Light-S" transform="matrix(1 0 0 1 1104.99 696)">
   <path d="M5.70752-35.2539C5.70752-34.0264 6.16894-32.6455 7.69922-31.1943L37.8516-2.81982C39.5273-1.29394 40.9302-0.539544 42.6782-0.539544C45.0679-0.539544 46.7925-2.31787 46.7925-4.67725L46.7925-20.4717L78.8853-20.4717C84.2871-20.4717 87.3872-23.4404 87.3872-28.7295L87.3872-41.6909C87.3872-46.9463 84.2871-49.9487 78.8853-49.9487L46.7925-49.9487L46.7925-65.6284C46.7925-67.9878 45.0679-69.9683 42.6108-69.9683C40.8779-69.9683 39.6621-69.1802 37.8516-67.501L7.69922-39.3472C6.15381-37.8623 5.70752-36.5151 5.70752-35.2539Z"/>
  </g>
  <g id="Thin-S" transform="matrix(1 0 0 1 809.484 696)">
   <path d="M6.08789-35.2539C6.08789-34.1465 6.44921-33.0059 8.25976-31.3145L38.2519-3.32031C39.3672-2.29491 40.4297-1.64061 41.7774-1.64061C43.6465-1.64061 44.8106-3.05858 44.8106-4.85742L44.8106-21.3926L77.8242-21.3926C82.6856-21.3926 85.3653-23.9609 85.3653-28.6895L85.3653-41.5508C85.3653-46.2656 82.6856-48.8477 77.8242-48.8477L44.8106-48.8477L44.8106-65.5684C44.8106-67.3672 43.6465-68.8672 41.75-68.8672C40.4375-68.8672 39.4219-68.1992 38.2519-67.1406L8.25976-39.207C6.41406-37.502 6.08789-36.375 6.08789-35.2539Z"/>
  </g>
  <g id="Ultralight-S" transform="matrix(1 0 0 1 513.388 696)">
   <path d="M6.28271-35.2539C6.28271-34.208 6.59277-33.1904 8.54686-31.376L38.457-3.57665C39.2852-2.8076 40.1733-2.20457 41.3159-2.20457C42.9185-2.20457 43.7954-3.43798 43.7954-4.9497L43.7954-21.8642L77.2808-21.8642C81.8653-21.8642 84.3296-24.2275 84.3296-28.6689L84.3296-41.479C84.3296-45.917 81.8653-48.2837 77.2808-48.2837L43.7954-48.2837L43.7954-65.5376C43.7954-67.0493 42.9185-68.3032 41.3091-68.3032C40.2119-68.3032 39.2988-67.6968 38.457-66.9561L8.54686-39.1353C6.54736-37.3174 6.28271-36.3032 6.28271-35.2539Z"/>
  </g>
 </g>
</svg>
